<svg xmlns="http://www.w3.org/2000/svg" xmlns:xlink="http://www.w3.org/1999/xlink">
<svg id="arson" x="0px" y="0px" width="64px" height="64px" viewBox="0 0 64 64">
<path fill="#0F6991" d="M24.122,53.406c-0.602,3.567,3.243,5.003,2.794,7.627c-4.874-1.402-8.662-4.398-11.095-8.963
	c-4.045-7.591-2.477-16.224,3.668-22.269c2.878-2.831,5.718-5.747,8.204-8.916c4.055-5.169,5.324-9.214,6.333-17.979
	c5.594,6.038,7.984,12.87,7.108,20.761c-0.875,7.885-5.625,13.621-11.048,19.01c6.913-1.885,13.97-10.743,14.891-18.597
	c0.144,0.004,0.383-0.041,0.42,0.025c3.914,7.061,5.762,14.642,4.738,22.65c-0.91,7.116-7.129,13.26-13.784,14.336
	c1.065-0.6,2.13-0.275,3.752-4.769c-1.513,1.683-1.976,0.247-5.305,1.915c2.68-1.807,3.397-6.066,2.285-8.945
	c-2.4,4.157-6.221,4.038-6.853,8.211C28.523,53.823,25.574,57.725,24.122,53.406z"/>
</svg>
</svg>
