<svg xmlns="http://www.w3.org/2000/svg" xmlns:xlink="http://www.w3.org/1999/xlink">
<svg id="bribery" x="0px" y="0px" width="64px" height="64px" viewBox="0 0 64 64">
<g>
	<path fill="#0F6991" d="M23.794,46.491c1.976-1.454,4.008-1.435,5.969-0.013c2.417-2.43,4.78-4.806,7.192-7.231
		c-1.422-1.927-1.411-3.953,0.216-6.16c-1.204-1.087-2.402-2.167-3.834-3.46c1.158-0.472,1.989-0.905,2.873-1.127
		c0.359-0.09,0.937,0.171,1.237,0.458c1.784,1.71,3.533,3.457,5.259,5.225c1.445,1.48,1.429,2.775-0.018,4.228
		c-4.518,4.537-9.041,9.07-13.573,13.594c-1.727,1.723-2.899,1.738-4.595,0.047C17.162,44.715,9.81,37.373,2.465,30.023
		c-1.703-1.704-1.713-2.908-0.032-4.6c4.433-4.462,8.877-8.914,13.33-13.356c1.855-1.85,2.978-1.824,4.857,0.022
		c1.522,1.495,3.055,2.978,4.626,4.508c-0.576,1.005-1.094,1.908-1.772,3.09c-0.588-0.896-1.134-1.728-1.676-2.555
		c-2.54,1.741-4.621,1.947-6.54,0.339c-2.435,2.45-4.763,4.794-7.203,7.25c1.291,1.883,1.491,3.971-0.044,5.925
		C13.268,35.924,18.455,41.131,23.794,46.491z"/>
	<path fill="#0F6991" d="M41.062,28.878c-0.447-0.351-0.67-0.452-0.78-0.625c-1.708-2.691-3.797-2.613-6.481-1.349
		c-1.384,0.652-3.306,0.731-4.829,0.385c-2.131-0.483-3.258-2.262-3.455-4.487c-0.231-2.619,0.776-4.797,3.115-5.855
		c4.18-1.892,8.463-3.583,12.79-5.115c2.902-1.027,6,0.615,7.05,3.608c1.555,4.437,2.931,8.938,4.354,13.421
		c0.149,0.468,0.135,1,0.136,1.502c0.007,5.28,0.013,10.559-0.004,15.839c-0.008,2.498-0.841,3.302-3.357,3.305
		c-4.87,0.006-9.74,0.002-14.934,0.002c1.682-1.934,2.913-3.665,5.723-3.385c2.999,0.299,6.05,0.067,9.217,0.067
		c0.052-0.58,0.132-1.064,0.132-1.549c0.003-2.977-0.239-5.973,0.025-8.925c0.618-6.9-2.583-12.868-4.404-19.168
		c-0.447-1.546-1.887-2.036-3.405-1.45c-3.762,1.455-7.51,2.946-11.255,4.444c-1.263,0.505-2.161,1.489-1.899,2.829
		c0.148,0.757,0.981,1.537,1.707,1.963c0.433,0.254,1.294-0.057,1.898-0.285c2.355-0.892,4.69-1.838,7.021-2.794
		c1.136-0.466,1.681-0.232,1.65,1.097C41.027,24.422,41.062,26.492,41.062,28.878z"/>
	<path fill="#0F6991" d="M55.257,29.03c2.407,0,4.801,0,7.391,0c0.047,0.532,0.133,1.064,0.134,1.596
		c0.01,5.495-0.04,10.99,0.037,16.484c0.02,1.443-0.47,1.843-1.833,1.75c-1.563-0.106-3.145,0.061-4.704-0.07
		c-0.45-0.038-1.213-0.689-1.217-1.066c-0.072-5.998-0.046-11.998-0.031-17.997C55.036,29.519,55.164,29.31,55.257,29.03z"/>
</g>
<circle fill="#0F6991" cx="22.738" cy="32.885" r="6.965"/>
<text transform="matrix(0.7071 0.7071 -0.7071 0.7071 17.9923 33.5809)" fill="#FFFFFF" font-family="'Calibri'" font-size="12">₱</text>
</svg>
</svg>
