<svg xmlns="http://www.w3.org/2000/svg" xmlns:xlink="http://www.w3.org/1999/xlink">
<svg version="1.1" id="burglary" xmlns="http://www.w3.org/2000/svg" xmlns:xlink="http://www.w3.org/1999/xlink" x="0px" y="0px"
	 width="64px" height="64px" viewBox="0 0 64 64" enable-background="new 0 0 64 64" xml:space="preserve">
<path fill="#0F6991" d="M31.442,2.885c-12.489,0.037-19.394,9.933-19.367,27.754c0.026,16.958,8.771,30.558,19.587,30.462
	c10.817-0.097,19.425-13.774,19.357-30.76C50.948,12.524,44.048,2.847,31.442,2.885z M15.323,22.954
	c4.528,0.696,8.427,1.295,13.81,2.123c-1.756,2.724-2.785,5.957-4.387,6.424C20.807,32.646,17.824,27.995,15.323,22.954z
	 M31.479,50.698c-4.937,0-8.939-3.028-8.939-6.763s4.002-6.763,8.939-6.763s8.939,3.028,8.939,6.763S36.416,50.698,31.479,50.698z
	 M38.681,31.573c-1.679-0.376-3.067-3.684-4.882-6.522c5.542-0.988,9.363-1.401,13.917-2.213
	C45.334,27.897,42.588,32.449,38.681,31.573z"/>
</svg>
</svg>