<svg xmlns="http://www.w3.org/2000/svg" xmlns:xlink="http://www.w3.org/1999/xlink">
<svg id="carnapping" x="0px" y="0px" width="64px" height="64px" viewBox="0 0 64 64">
<g>
	<g>
		<path fill="#0F6991" d="M9.082,31.509c0.368,6.451-0.55,12.706-2.743,18.772C5.9,51.496,4.917,52.029,3.68,51.584
			c-1.281-0.461-1.623-1.396-1.32-2.798c0.923-4.269,1.76-8.559,2.487-12.864c0.116-0.688-0.472-1.516-0.797-2.252
			s-0.946-1.404-1.059-2.159c-0.5-3.342-0.342-6.663,0.952-9.833c0.961-2.354,3.053-3.871,5.669-1.705
			c-0.23,0.258-1.064,0.26-1.289,0.513c-0.289,0.029-0.658-0.044-0.853,0.107c-0.546,0.421-1.021,0.935-1.524,1.412
			c0.561,0.49,1.052,1.208,1.702,1.406c0.656,0.2,1.469-0.117,2.213-0.207c0.211,0.401,0.562,0.583,1.226,0.927
			c1.667,0.844,3.259,1.016,3.96,0.826c1.386-0.604,3.427-0.465,3.796,0.846c0.549-2.012,0.415-1.34,1.16-3.952
			c1.241-3.252,2.694-3.551,5.213-3.765c7.723-0.655,15.429-0.538,23.141,0.093c1.814,0.148,3.039,0.85,3.596,2.723
			c0.581,1.954,1.369,3.848,2.125,5.746c0.174,0.438,0.585,0.781,0.887,1.168c0.31-0.325,0.586-0.695,0.939-0.963
			c0.431-0.327,0.902-0.731,1.402-0.809c0.857-0.134,1.751-0.023,2.628-0.049c1.276-0.037,1.959,0.433,1.953,1.838
			c-0.006,1.364-0.603,1.912-1.917,1.883c-1.454-0.032-2.91-0.007-4.379-0.007c0.029,0.214,0.009,0.379,0.062,0.407
			c3.155,1.662,4.532,4.202,4.073,7.795c-0.182,1.424-0.03,2.89-0.03,4.419c-5.625,0-11.041,0-16.606,0c0-1.917,0-3.77,0-5.83
			c-0.66-0.036-1.183-0.065-1.888-0.104c0,1.696,0.037,3.207-0.024,4.714c-0.017,0.43-0.318-0.151-0.489,0.273
			c-0.207-0.448-0.567,0.112-0.591-0.345c-0.077-1.452-0.048-3.078-0.048-4.666c-0.583-0.061-1.051,0.055-1.795-0.022
			c0,1.283-0.626,1.472-0.517,2.601c0,0-0.084-0.967-0.21-1.219c0.252-0.778-0.042-0.61-0.542-1.242c-0.651,0-1.136,0-1.803,0
			c0,1.691,0.026,3.318-0.022,4.942c-0.009,0.321-0.302-0.366-0.465-0.05c-0.232-0.314-0.65,0.381-0.664,0.058
			c-0.068-1.626-0.031-3.256-0.031-4.958c-0.682,0-1.184,0-1.876,0c0,1.716,0.027,3.345-0.024,4.972
			c-0.01,0.315-0.326-0.379-0.501-0.069c-0.217-0.321-0.608,0.366-0.622,0.036c-0.066-1.573-0.03-3.151-0.03-4.872l-1.746-0.006
			c0,2.021,0.025,3.721,0.025,5.748c-5.591,0-10.999,0-16.534,0c0-2.713-0.425-5.525,0.154-8.113
			c0.366-1.638,2.228-2.942,3.477-4.467c-0.981,0-2.255,0.002-3.53-0.001c-2.258-0.005-2.097-0.139-2.025-2.309
			c0.014-0.43,0.7-0.934,0.532-1.37c-0.435-0.215-1.881-0.347-2.365-0.662 M18.19,29.156c12.095,0,23.845,0,35.827,0
			c-1.201-2.559-2.226-4.905-3.419-7.162c-0.262-0.497-1.091-0.906-1.702-0.974c-8.506-0.95-17.021-0.964-25.527-0.004
			c-0.656,0.074-1.481,0.52-1.831,1.053c-0.831,1.268-1.363,2.662-0.55,4.247c0.334,0.651,0.341,1.469,0.497,2.212
			c-0.182,0.032-0.364,0.063-0.546,0.095c-0.325-0.949-0.649-1.898-1.071-3.131C19.256,26.831,18.76,27.913,18.19,29.156z
			 M52.534,39.384c1.671-0.042,3.012-1.435,2.95-3.066c-0.061-1.614-1.528-3.013-3.105-2.961c-1.652,0.055-2.935,1.433-2.898,3.112
			C49.519,38.165,50.839,39.426,52.534,39.384z M19.795,39.384c1.636-0.023,3.03-1.448,2.983-3.051
			c-0.046-1.591-1.523-3.017-3.091-2.986c-1.589,0.031-2.985,1.488-2.967,3.099C16.737,38.079,18.128,39.408,19.795,39.384z"/>
		<path fill="#0F6991" d="M51.214,48.448c-9.921,0-19.72,0-29.503,0c-0.505,3.483-0.505,3.483-4.125,3.478
			c-0.117,0-0.234,0-0.351-0.001c-2.96-0.006-2.945-0.006-2.967-3.036c-0.008-1.189,0.425-2.483-1.367-3.072
			c-0.584-0.192-0.799-1.507-1.309-2.573c16.46,0,32.496,0,48.608,0c0.044,1.296-0.175,2.372-1.488,3.06
			c-0.346,0.181-0.551,0.916-0.566,1.405c-0.124,4.239-0.106,4.239-4.212,4.214C51.56,51.909,51.56,51.909,51.214,48.448z"/>
		<path fill="#0F6991" d="M17.358,18.429c-1.685,1.29-2.518,2.029-4.27,3.22c-0.977,0.664-2.311,1.288-3.393,1.797
			c-0.744,0.09-1.311,1.191-1.967,0.991c-0.65-0.198-1.222-1.943-1.782-2.433c0.503-0.477,0.978-0.991,1.524-1.412
			c0.196-0.151,0.24-0.262,0.529-0.291c0.768-0.305,1.86-0.427,2.629-0.732c1.588-1.141,3.176-2.283,4.764-3.424
			c0.82-0.611,1.882-1.896,2.799-1.593c0.916,0.303,0.885,1.634,0.622,2.196C18.443,17.538,17.358,18.429,17.358,18.429z"/>
		<path fill="#0F6991" d="M15.392,16.145c-1.588,1.141-3.176,2.283-4.764,3.424c-2.048-0.639-3.003-2.345-2.494-4.451
			c0.422-1.744,2.344-3.057,4.102-2.802C14.287,12.613,15.528,14.119,15.392,16.145z"/>
		<path fill="#FFFFFF" d="M18.19,29.156c0.57-1.243,1.065-2.325,1.679-3.666c0.412-1.473,0.587-2.469,1.419-3.737
			c0.35-0.533,1.426-0.664,2.082-0.738c8.506-0.96,17.021-0.946,25.527,0.004c0.611,0.068,1.44,0.478,1.702,0.974
			c1.192,2.257,2.218,4.603,3.419,7.162C42.036,29.156,30.285,29.156,18.19,29.156z M36.022,22.749c0,0.004,0,0.007,0,0.011
			c0.29,0,0.604,0.071,0.864-0.016c0.437-0.146,0.84-0.394,1.258-0.599c-0.419-0.265-0.809-0.663-1.264-0.762
			c-0.609-0.132-1.286-0.12-1.899,0.005c-0.338,0.069-0.604,0.496-0.902,0.762c0.3,0.199,0.576,0.474,0.905,0.577
			C35.302,22.827,35.674,22.749,36.022,22.749z"/>
		<path fill="#FFFFFF" d="M52.534,39.384c-1.695,0.042-3.016-1.218-3.053-2.914c-0.037-1.679,1.246-3.057,2.898-3.112
			c1.577-0.052,3.044,1.346,3.105,2.961C55.546,37.949,54.205,39.342,52.534,39.384z M54.82,36.383
			c-0.016-1.226-1.131-2.35-2.344-2.363c-1.301-0.014-2.457,1.187-2.391,2.484c0.064,1.257,1.186,2.307,2.424,2.268
			C53.741,38.734,54.836,37.603,54.82,36.383z"/>
		<path fill="#FFFFFF" d="M19.795,39.384c-1.667,0.024-3.058-1.305-3.075-2.938c-0.017-1.61,1.378-3.067,2.967-3.099
			c1.568-0.031,3.045,1.395,3.091,2.986C22.825,37.936,21.431,39.361,19.795,39.384z M19.782,38.756
			c1.252-0.027,2.337-1.123,2.339-2.362c0.002-1.206-1.132-2.357-2.34-2.377c-1.289-0.021-2.47,1.182-2.422,2.468
			C17.405,37.725,18.534,38.783,19.782,38.756z"/>
		<path fill="#0F6991" d="M54.82,36.383c0.016,1.22-1.078,2.351-2.311,2.389c-1.238,0.038-2.359-1.011-2.424-2.268
			c-0.066-1.297,1.089-2.498,2.391-2.484C53.689,34.033,54.803,35.157,54.82,36.383z"/>
		<path fill="#0F6991" d="M19.782,38.756c-1.248,0.027-2.377-1.031-2.423-2.271c-0.048-1.286,1.133-2.489,2.422-2.468
			c1.209,0.02,2.342,1.171,2.34,2.377C22.119,37.632,21.034,38.728,19.782,38.756z"/>
	</g>
	<path fill="#0F6991" d="M38,21.522C38,21.786,37.786,22,37.522,22h-4.044C33.214,22,33,21.786,33,21.522v-0.044
		C33,21.214,33.214,21,33.478,21h4.044C37.786,21,38,21.214,38,21.478V21.522z"/>
	<path fill="#0F6991" stroke="#FFFFFF" stroke-width="0.5" stroke-miterlimit="10" d="M17.401,27.815c0,0,0.311-1.585-1.791-1.848
		c0,0-3.227-0.123-4.153,0.141s-1.141,1.742-0.924,2.34s0.43,1.276,1.643,1.264s3.569,0.002,4.232,0s0.775-0.322,0.993-0.848
		C17.62,28.339,17.401,27.815,17.401,27.815z"/>
	<path fill="#0F6991" d="M17.292,27.44c0,0-0.444-1.02-1.482-1.129c0,0-2.797-0.196-3.723,0.032
		c-0.926,0.228-1.141,1.502-0.924,2.018s0.43,1.101,1.643,1.09c1.214-0.01,3.957-0.238,3.517,0.259
		c-0.572,0.647,1.531,0.977,1.946-1.575C18.35,27.639,17.292,27.44,17.292,27.44z"/>
	<rect x="31" y="34" fill="#0F6991" width="1" height="8"/>
	<rect x="30.792" y="34" fill="#0F6991" width="1.8" height="8"/>
	<rect x="33.75" y="34" fill="#0F6991" width="1.8" height="8"/>
	<rect x="36.792" y="34" fill="#0F6991" width="1.8" height="8"/>
	<rect x="39.667" y="34" fill="#0F6991" width="1.8" height="8"/>
</g>
<line fill="none" stroke="#0F6991" stroke-miterlimit="10" x1="16.146" y1="12.284" x2="18.157" y2="27.826"/>
</svg>
</svg>