<svg xmlns="http://www.w3.org/2000/svg" xmlns:xlink="http://www.w3.org/1999/xlink">
<svg id="child-labor" x="0px" y="0px" width="64px" height="64px" viewBox="0 0 64 64">
<g>
	<path fill="#FFFFFF" d="M39.455,30.37c2.563,2.653,4.317,4.875,6.497,6.539c0.955,0.729,2.779,0.319,4.208,0.427
		c-0.07-1.424,0.395-3.253-0.316-4.194c-1.834-2.43-4.444-4.274-6.279-6.704c-3.817-5.051-8.571-6.927-14.91-6.386
		c-3.571,0.305-6.369,1.023-8.767,3.746c-2.643,3.002-5.759,5.599-8.284,8.688c-0.909,1.113-0.699,3.141-1,4.751
		c1.635-0.253,3.618-0.012,4.827-0.867c2.081-1.473,3.68-3.627,5.999-6.032c0.198,2.672,0.32,4.329,0.445,6.025
		c5.847,0,11.402,0,17.111,0C39.128,34.552,39.25,32.989,39.455,30.37z M38.68,10.735c0.067-4.755-3.524-8.488-8.195-8.518
		c-4.664-0.03-8.302,3.669-8.288,8.428c0.013,4.501,3.544,8.193,8.007,8.374C34.75,19.202,38.614,15.426,38.68,10.735z
		 M21.327,40.085c-1.718,1.821-3.267,3.467-4.82,5.109c-2.218,2.346-2.15,4.858-0.145,7.167c2.442,2.814,4.978,5.585,7.779,8.024
		c0.899,0.782,2.767,0.451,4.192,0.629c-0.045-1.527,0.508-3.543-0.259-4.477c-1.56-1.902-3.831-3.221-5.809-4.78
		c0.256-0.337,0.511-0.673,0.767-1.01c1.263-1.67,2.526-3.341,3.769-4.984C25.033,43.93,23.399,42.234,21.327,40.085z M38.75,49.895
		c-2.371,2.5-4.599,4.45-6.262,6.799c-0.681,0.962-0.142,2.788-0.158,4.221c1.412-0.104,3.299,0.334,4.149-0.411
		c2.902-2.542,5.794-5.257,7.958-8.408c1.013-1.474,1.033-4.394,0.28-6.128c-1.005-2.314-3.199-4.111-5.001-6.273
		c-2.407,2.541-4.012,4.236-5.893,6.221C35.653,47.394,37.098,48.561,38.75,49.895z"/>
	<path fill="#0F6991" d="M39.455,30.37c-0.205,2.619-0.327,4.183-0.469,5.993c-5.709,0-11.264,0-17.111,0
		c-0.125-1.696-0.248-3.353-0.445-6.025c-2.319,2.405-3.917,4.56-5.999,6.032c-1.208,0.855-3.252,2.227-4.827,0.867
		c-1.574-1.36,0.09-3.639,1-4.751c2.524-3.089,5.64-5.686,8.284-8.688c2.398-2.724,5.197-3.442,8.767-3.746
		c6.339-0.541,11.093,1.335,14.91,6.386c1.836,2.429,4.445,4.273,6.279,6.704c0.71,0.941,2.007,2.768,0.316,4.194
		s-3.253,0.302-4.208-0.427C43.772,35.244,42.018,33.023,39.455,30.37z"/>
	<path fill="#0F6991" d="M38.68,10.735c-0.066,4.691-3.93,8.467-8.476,8.283c-4.464-0.181-7.994-3.872-8.007-8.374
		c-0.014-4.759,3.624-8.458,8.288-8.428C35.156,2.247,38.747,5.98,38.68,10.735z"/>
	<path fill="#0F6991" d="M21.327,40.085c2.072,2.149,3.706,3.845,5.474,5.678c-1.242,1.643-2.506,3.313-3.769,4.984
		c-0.256,0.337-0.511,0.673-0.767,1.01c1.978,1.559,4.249,2.877,5.809,4.78c0.767,0.935,1.702,3.322,0.259,4.477
		c-1.443,1.156-3.294,0.154-4.192-0.629c-2.801-2.439-5.337-5.211-7.779-8.024c-2.005-2.309-2.073-4.821,0.145-7.167
		C18.06,43.552,19.609,41.906,21.327,40.085z"/>
	<path fill="#0F6991" d="M38.75,49.895c-1.652-1.334-3.097-2.501-4.925-3.978c1.881-1.986,3.486-3.68,5.893-6.221
		c1.802,2.161,3.996,3.959,5.001,6.273c0.753,1.734,0.732,4.654-0.28,6.128c-2.165,3.151-5.056,5.866-7.958,8.408
		c-0.85,0.745-2.982,1.319-4.149,0.411c-1.168-0.908-0.524-3.259,0.158-4.221C34.151,54.345,36.379,52.395,38.75,49.895z"/>
</g>
<g>
	<path fill="#0F6991" d="M50.512,28.158c1.014-1.069,2.01-2.12,3.02-3.185c-0.186-0.262-0.161-0.534-0.049-0.829
		c0.182-0.477-0.032-0.883-0.333-1.214c-0.589-0.649-1.334-1.024-2.209-1.116c-0.126-0.013-0.256,0.007-0.385,0.011
		c-0.003-0.025-0.006-0.05-0.01-0.075c0.451-0.083,0.901-0.22,1.354-0.234c0.466-0.014,0.945,0.05,1.401,0.156
		c0.582,0.136,1.079,0.459,1.502,0.892c0.627,0.642,1.286,1.255,1.88,1.926c0.315,0.355,0.523,0.808,0.782,1.214
		c0.086,0.136,0.182,0.265,0.27,0.394c0.439-0.171,0.777-0.058,1,0.319c0.093,0.158,0.028,0.549-0.125,0.712
		c-0.302,0.321-0.602,0.644-0.912,0.957c-0.261,0.264-0.651,0.267-0.917,0.01c-0.235-0.227-0.36-0.617-0.04-0.903
		c0.043-0.038,0.064-0.172,0.033-0.211c-0.212-0.263-0.382-0.584-0.739-0.676c-0.15-0.039-0.329-0.062-0.471-0.017
		c-0.288,0.092-0.518-0.004-0.762-0.126c-0.065-0.033-0.2-0.034-0.241,0.009c-0.973,1.024-1.938,2.056-2.907,3.089
		c0.219,0.37,0.105,0.646-0.157,0.934c-1.164,1.281-2.312,2.578-3.467,3.868c-0.36,0.402-0.711,0.813-1.087,1.199
		c-0.29,0.297-0.717,0.29-1.114-0.048c-0.374-0.319-0.719-0.676-1.047-1.044c-0.323-0.363-0.308-0.583-0.009-0.886
		c1.175-1.19,2.345-2.385,3.518-3.577c0.454-0.462,0.924-0.91,1.356-1.392C49.886,28.049,50.129,27.98,50.512,28.158z"/>
</g>
</svg>
</svg>