<svg xmlns="http://www.w3.org/2000/svg" xmlns:xlink="http://www.w3.org/1999/xlink">
<svg id="child-abuse" x="0px" y="0px" width="64px" height="64px" viewBox="0 0 64 64">
<g>
	<path fill="#0F6991" d="M24.464,21.316c4.617-1.192,7.583-3.789,9.734-7.115c0.562-0.869,1.451-1.614,1.939-2.501
		c0.255-0.464,0.075-1.135-0.097-1.675c-0.682-2.14,0.561-4.145,3.078-4.841c2.587-0.715,5.212,0.21,6.227,2.194
		c0.949,1.855-0.018,4.052-2.328,4.865c-1.066,0.375-1.518,0.183-2.877,0.667c3.726-0.007,5.285,1.609,5.937,4.293
		c0.559,2.302,0.756,4.672,0.862,7.02c0.029,0.645,0.001,1.569-1.336,1.906c-3.583,0.903-3.218,3.229-3.07,5.281
		c0.098,1.349,0.799,2.731,1.323,4.085c0.296,0.764,0.393,1.985-1.187,2.442s-2.557-0.619-2.925-1.254
		c-1.83-3.158-1.903-6.494-1.046-9.891c0.505-2,0.716-4.045,1.023-5.852c-2.51-0.687-3.087-0.936-5.545-1.673
		c-2.95,3.009-5.944,4.502-9.572,6.326c-0.118,0.723-0.206,1.852-0.499,2.947c-1.057,3.957-1.088,7.781,0.475,11.762
		c2.449,6.24,1.88,12.564-0.808,18.746c-1.026,2.361-2.648,3.246-4.81,2.706c-2.138-0.534-2.825-2.065-1.888-4.381
		c2.118-5.23,2.602-10.503,0.655-15.826c-0.254-0.695-0.656-1.577-1.349-1.914c-2.7-1.31-3.512-3.3-3.249-5.523
		c0.411-3.475,1.033-6.942,1.833-10.374c0.225-0.965,0.562-2.183,1.498-2.911C18.747,19.048,22.218,19.433,24.464,21.316z"/>
	<path fill="#0F6991" d="M19.517,8.473c3.36-0.033,6.368,2.284,6.43,4.953c0.062,2.687-2.779,5.027-6.211,5.115
		c-3.513,0.089-6.614-2.29-6.587-5.054C13.175,10.803,16.093,8.506,19.517,8.473z"/>
	<path fill="#0F6991" d="M27.223,5.556c0.712,0.413,1.423,0.826,2.205,1.28c0.146-0.583,0.353-1.411,0.578-2.311
		c0.751,0.095,1.56,0.198,2.37,0.3c-0.628,0.559-1.372,1.063-1.855,1.692c-0.565,0.736-0.902,1.579-1.523,2.714
		C28.263,7.707,27.743,6.632,27.223,5.556z"/>
	<path fill="#0F6991" d="M49.811,2.33C48.22,2.854,46.63,3.377,45.039,3.9c0.991-1.602,1.829-3.409,4.386-2.488
		C49.553,1.719,49.682,2.024,49.811,2.33z"/>
	<path fill="#0F6991" d="M53.944,6.851c-2.218-0.472-3.809-0.811-5.726-1.22C51.495,4.22,52.721,4.397,53.944,6.851z"/>
</g>
</svg>
</svg>