<svg xmlns="http://www.w3.org/2000/svg" xmlns:xlink="http://www.w3.org/1999/xlink">
<svg id="domestic-violence" x="0px" y="0px" width="64px" height="64px" viewBox="0 0 64 64">
<g>
	<path fill="#FFFFFF" d="M26.211,26.356c-1.401-2.312-2.4-4.245-3.665-5.985c-1.9-2.61-4.863-3.605-7.776-2.234
		c-3.152,1.483-6.266,3.223-8.996,5.362c-1.842,1.443-3.114,3.696-4.366,5.754c-0.342,0.562,0.305,1.727,0.498,2.615
		c0.819-0.355,1.747-0.571,2.421-1.107c0.551-0.438,0.7-1.351,1.201-1.891c1.675-1.803,3.428-3.533,5.152-5.291
		c-0.226,4.578-0.984,8.606-1.401,12.668c-0.415,4.035-0.488,8.105-0.735,12.585c7.995-4.722,15.467-9.136,23.062-13.623
		c-1.56-1.703-1.724-4.601-4.908-4.494c1.974-0.357,3.853-0.488,5.564-1.094c0.859-0.304,1.412-1.472,2.103-2.249
		c-0.976-0.326-1.938-0.872-2.93-0.934c-2.297-0.144-4.608-0.051-6.914-0.073c-0.055-0.001-0.109-0.219-0.182-0.377
		C24.769,26.073,25.173,26.153,26.211,26.356z M54.387,31.882c0.152,0.1,0.305,0.201,0.457,0.301c-0.563,0.969-1.042,2-1.702,2.898
		c-4.106,5.587-5.627,11.916-5.391,18.731c0.067,1.945,0.87,3.506,3.156,3.443c2.242-0.061,3.006-1.489,2.952-3.549
		c-0.181-6.836,1.602-12.86,6.728-17.765c2.675-2.56,2.735-5.738,0.439-7.796c-3.987-3.574-8.78-5.521-14.066-6.125
		c-1.077-0.123-2.357,0.301-3.344,0.84c-2.964,1.618-3.099,4.826-0.266,6.644c1.17,0.751,2.578,1.354,3.941,1.529
		c2.264,0.29,3.353,1.56,3.968,3.548c0.102,0.33,0.392,0.602,0.763,1.148C52.918,34.273,53.653,33.077,54.387,31.882z
		 M22.282,41.733c2.438-0.282,4.14-0.469,5.84-0.678c5.647-0.692,11.294-1.377,16.937-2.097c1.685-0.215,2.916-1.003,2.633-2.943
		c-0.266-1.825-1.613-2.165-3.192-1.989c-1.33,0.148-2.654,0.458-3.983,0.475C33.795,34.587,28.241,37.587,22.282,41.733z
		 M23.972,6.725c-2.996-0.026-5.511,2.379-5.589,5.346c-0.076,2.877,2.443,5.544,5.342,5.655c3.036,0.117,5.659-2.441,5.674-5.534
		C29.414,9.216,26.968,6.751,23.972,6.725z M39.352,22.889c3.004,0.045,5.495-2.312,5.618-5.315c0.12-2.94-2.588-5.698-5.577-5.68
		c-2.937,0.017-5.421,2.535-5.43,5.506C33.953,20.42,36.333,22.843,39.352,22.889z M19.69,43.328
		c-4.754,1.958-4.78,2.058-4.09,6.659c0.361,2.407,0.534,4.842,0.856,7.256c0.22,1.65,0.61,3.314,2.819,3.098
		c2.236-0.219,2.276-1.907,2.078-3.582C20.833,52.341,20.264,47.929,19.69,43.328z M48.637,5.915
		c-1.315,0.554-2.176,0.917-3.121,1.314c-0.318-1.163-0.57-2.089-0.953-3.491c-0.775,1.287-1.302,2.16-1.911,3.171
		c-0.686-0.581-1.293-1.095-2.002-1.696c-0.373,1.108,0.072,2.976-2.307,1.56c0.213,1.123,0.339,1.787,0.511,2.698
		c1.059-0.867,1.855-1.519,2.701-2.212c0.32,0.239,0.808,0.603,1.324,0.988c0.507-0.797,0.895-1.407,1.386-2.178
		c0.295,0.872,0.517,1.527,0.784,2.314c0.709-0.226,1.285-0.411,2.095-0.67c-0.17,0.937-0.296,1.62-0.418,2.287
		c0.717,0.192,1.271,0.341,1.501,0.403c-0.394,1.572-0.721,2.877-1.088,4.341c0.883-0.229,1.787-0.463,3.013-0.781
		c-0.81-0.707-1.333-1.164-1.896-1.655c0.881-0.985,1.653-1.849,2.619-2.929c-1.344-0.107-2.206-0.176-3.123-0.249
		C48.04,8.085,48.276,7.227,48.637,5.915z M45.751,32.933c0.027-0.267,0.054-0.535,0.08-0.802
		c-3.708-0.407-7.416-0.815-11.124-1.222c-0.051,0.451-0.102,0.901-0.154,1.352C38.248,32.798,41.994,32.908,45.751,32.933z
		 M48.007,39.459c-2.41,2.614-4.819,5.228-7.259,7.876C42.392,48.314,45.524,45.124,48.007,39.459z"/>
	<path fill="#0F6991" d="M26.211,26.356c-1.038-0.203,2.751-0.51,5.045-0.693c1.535-0.123,3.17-0.069,3.437,1.657
		c0.268,1.726-1.503,2.153-2.701,2.393c-2.001,0.401-2.17,0.437-4.144,0.794c0.891,1.14,2.198,3,3.758,4.703
		c-7.596,4.487-15.068,8.9-23.062,13.623c0.247-4.48,0.32-8.55,0.735-12.585c0.418-4.063,1.175-8.09,1.401-12.668
		c-1.723,1.758-3.477,3.488-5.152,5.291c-0.502,0.54-0.743,1.598-1.122,2.192c-0.5,0.781-1.428,1.342-2.5,0.806
		c-1.073-0.536-0.84-2.053-0.498-2.615c1.253-2.058,2.597-4.223,4.366-5.754c3.226-2.791,4.748-4.345,8.351-5.583
		c3.045-1.046,6.522-0.155,8.421,2.455C23.812,22.111,24.811,24.044,26.211,26.356z"/>
	<path fill="#0F6991" d="M54.387,31.882c-0.735,1.195-1.469,2.391-2.364,3.847c-0.371-0.547-0.661-0.818-0.763-1.148
		c-0.615-1.988-1.704-3.258-3.968-3.548c-1.363-0.175-2.772-0.778-3.941-1.529c-2.833-1.818-2.698-5.026,0.266-6.644
		c0.986-0.538,2.266-0.963,3.344-0.84c5.286,0.604,10.079,2.551,14.066,6.125c2.296,2.058,2.237,5.235-0.439,7.796
		c-5.126,4.906-6.909,10.929-6.728,17.765c0.055,2.06-0.71,3.488-2.952,3.549c-2.286,0.063-3.088-1.498-3.156-3.443
		c-0.236-6.816,1.285-13.144,5.391-18.731c0.66-0.898,1.139-1.929,1.702-2.898C54.692,32.083,54.54,31.982,54.387,31.882z"/>
	<path fill="#0F6991" d="M22.282,41.733c5.959-4.146,8.698-6.464,17.298-7.201c1.325-0.113,3.591-0.358,4.921-0.506
		c1.578-0.175,2.925,0.164,3.192,1.989c0.283,1.94-0.948,2.728-2.633,2.943c-5.643,0.72-11.29,1.405-16.937,2.097
		C26.422,41.264,24.72,41.451,22.282,41.733z"/>
	<path fill="#0F6991" d="M23.972,6.725c2.995,0.026,5.442,2.491,5.427,5.467c-0.015,3.093-2.639,5.651-5.674,5.534
		c-2.9-0.112-5.419-2.779-5.342-5.655C18.462,9.104,20.976,6.699,23.972,6.725z"/>
	<path fill="#0F6991" d="M39.352,22.889c-3.019-0.045-5.399-2.469-5.389-5.489c0.009-2.971,2.493-5.489,5.43-5.506
		c2.989-0.017,5.697,2.741,5.577,5.68C44.847,20.577,42.356,22.934,39.352,22.889z"/>
	<path fill="#0F6991" d="M19.69,43.328c0.573,4.602,1.143,9.013,1.663,13.43c0.197,1.675,0.158,3.363-2.078,3.582
		c-2.21,0.216-2.599-1.448-2.819-3.098c-0.322-2.414-0.495-4.848-0.856-7.256C14.911,45.386,14.937,45.285,19.69,43.328z"/>
	<path fill="#0F6991" d="M48.637,5.915c-0.361,1.312-0.598,2.171-0.885,3.215c0.917,0.073,1.779,0.142,3.123,0.249
		c-0.966,1.08-1.738,1.943-2.619,2.929c0.562,0.491,1.086,0.948,1.896,1.655c-1.226,0.318-2.129,0.552-3.013,0.781
		c0.367-1.464,0.694-2.769,1.088-4.341c-0.23-0.062-0.784-0.21-1.501-0.403c0.123-0.668,0.248-1.35,0.42-2.286
		c-0.81,0.259-1.386,0.443-2.095,0.67c-0.266-0.787-0.488-1.442-0.784-2.314c-0.491,0.771-0.879,1.382-1.386,2.178
		c-0.517-0.385-1.005-0.75-1.324-0.988c-0.846,0.693-1.642,1.345-2.701,2.212c-0.173-0.911-0.298-1.575-0.511-2.698
		c2.379,1.416,1.934-0.452,2.307-1.56c0.71,0.601,1.316,1.115,2.002,1.696c0.609-1.011,1.136-1.885,1.911-3.171
		c0.383,1.402,0.635,2.327,0.953,3.491C46.461,6.831,47.323,6.468,48.637,5.915z"/>
	<path fill="#0F6991" d="M45.751,32.933c-3.756-0.025-7.502-0.135-11.198-0.672c0.051-0.451,0.102-0.901,0.154-1.352
		c3.708,0.407,7.416,0.815,11.124,1.222C45.804,32.398,45.778,32.666,45.751,32.933z"/>
	<path fill="#0F6991" d="M48.007,39.459c-2.483,5.665-5.615,8.855-7.259,7.876C43.188,44.688,45.598,42.074,48.007,39.459z"/>
</g>
</svg>
</svg>