<svg xmlns="http://www.w3.org/2000/svg" xmlns:xlink="http://www.w3.org/1999/xlink">
<svg id="extortion" x="0px" y="0px" width="64px" height="64px" viewBox="0 0 64 64">
<g>
	<path fill="#0F6991" d="M23.189,35.653c-0.604,1.503-1.24,2.994-1.803,4.512c-0.678,1.831-0.072,3.278,1.578,3.94
		c1.652,0.663,3.064,0.121,3.838-1.571c0.646-1.413,1.228-2.859,1.766-4.317c0.252-0.682,0.626-0.913,1.34-0.897
		c1.901,0.044,3.805-0.033,5.703,0.045c0.534,0.022,1.179,0.281,1.558,0.651c3.12,3.054,6.194,6.157,9.271,9.255
		c0.425,0.428,0.837,0.88,1.183,1.372c0.832,1.186,0.752,2.063-0.21,3c-0.928,0.904-1.884,0.978-3.012,0.091
		c-0.879-0.691-1.661-1.504-2.605-2.164c0.582,0.619,1.176,1.228,1.745,1.86c1.372,1.525,1.495,2.526,0.464,3.612
		c-1.086,1.144-1.99,1.099-3.61-0.18c-0.1-0.079-0.207-0.15-0.424-0.214c0.992,1.368,1.999,2.735,0.238,4.18
		c-1.383,1.135-2.468,0.217-3.648-0.68c0.409,0.85,1.027,1.563,1.01,2.261c-0.018,0.698-0.528,1.539-1.077,2.033
		c-1.023,0.92-2.325,0.384-3.909-1.413c1.416-3.242,0.587-4.875-2.571-5.062c-0.442-2.675-1.07-3.3-3.531-3.521
		c-0.395-2.641-0.982-3.228-3.536-3.524c-0.07-0.503-0.064-1.035-0.225-1.51c-0.582-1.718-2.363-2.4-3.995-1.453
		c-0.7,0.406-1.057,0.241-1.516-0.274c-1.383-1.553-1.341-3.049,0.141-4.553c1.862-1.889,3.711-3.791,5.565-5.687
		C23.006,35.516,23.098,35.584,23.189,35.653z"/>
	<path fill="#0F6991" d="M42.998,25.288c-3.99-0.43-5.555,0.709-6.496,4.799c-3.004,0-6.049,0-9.104,0
		c-0.711-4.015-2.222-5.172-6.451-4.814c-1.082-2.498-1.245-5.113-0.302-7.643c0.62-1.662,1.577-3.269,2.685-4.66
		c1.438-1.804,3.291-2.891,5.852-2.626c2.309,0.239,4.665-0.013,6.996,0.083c0.812,0.033,1.715,0.29,2.393,0.728
		C43.292,14.204,45.281,20.585,42.998,25.288z"/>
	<path fill="#0F6991" d="M46.29,46.549c-2.956-2.995-5.846-5.971-8.808-8.873c-0.456-0.447-1.235-0.751-1.881-0.781
		c-2.068-0.096-4.145-0.065-6.216,0.001c-0.348,0.011-0.844,0.367-0.994,0.691c-0.668,1.45-1.22,2.953-1.844,4.424
		c-0.728,1.716-1.875,2.279-3.353,1.688c-1.522-0.609-2.005-1.784-1.33-3.499c0.918-2.329,1.881-4.642,2.871-6.942
		c0.495-1.151,1.307-1.829,2.695-1.826c2.112,0.005,4.242-0.013,6.332-0.279c2.455-0.312,4.077,0.828,5.639,2.476
		c2.406,2.539,4.92,4.975,7.39,7.452C48.709,43.006,48.617,44.618,46.29,46.549z"/>
	<path fill="#0F6991" d="M11.983,35.695c2.819-2.913,5.69-5.775,8.58-8.618c1.209-1.189,3.274-1.092,4.462,0.111
		c1.388,1.405,1.435,3.287,0.143,4.597c-2.846,2.886-5.666,5.796-8.525,8.669c-1.076,1.081-2.385,1.284-3.678,0.699
		C11.711,40.585,9.335,38.343,11.983,35.695z"/>
	<path fill="#0F6991" d="M52.017,35.695c-2.819-2.913-5.69-5.775-8.58-8.618c-1.209-1.189-3.274-1.092-4.462,0.111
		c-1.388,1.405-1.435,3.287-0.143,4.597c2.846,2.886,5.666,5.796,8.525,8.669c1.076,1.081,2.385,1.284,3.678,0.699
		C52.289,40.585,54.665,38.343,52.017,35.695z"/>
	<path fill="#0F6991" d="M32.044,9.134c-0.647,0-1.295-0.022-1.941,0.005c-1.009,0.042-1.94,0.079-2.522-1.048
		c-0.745-1.442-1.482-2.864-0.988-4.537c0.206-0.697,0.773-0.804,1.326-0.356c0.635,0.514,1.169,0.18,1.845,0.1
		c1.444-0.172,2.953-0.098,4.414-0.024c0.623,0.031,1.163,0.467,1.839-0.036c0.877-0.652,1.39-0.172,1.51,0.739
		c0.248,1.888-0.555,3.452-1.703,4.856c-0.174,0.213-0.611,0.277-0.932,0.289C33.944,9.158,32.993,9.134,32.044,9.134z"/>
	<path fill="#0F6991" d="M25.906,51.702c0.018,1.521-2.801,4.323-4.323,4.299c-1.584-0.025-2.8-1.941-1.893-3.251
		c0.789-1.14,1.843-2.181,2.985-2.968C23.985,48.879,25.887,50.107,25.906,51.702z"/>
	<path fill="#0F6991" d="M18.166,52.506c-1.519,0.036-2.895-1.824-2.063-3.058c0.842-1.249,1.988-2.39,3.231-3.242
		c1.214-0.832,3.1,0.527,3.085,2.03C22.402,49.682,19.626,52.471,18.166,52.506z"/>
	<path fill="#0F6991" d="M29.425,55.232c-0.01,1.451-2.76,4.234-4.227,4.278c-1.53,0.045-2.909-1.789-2.08-3.029
		c0.835-1.25,1.973-2.398,3.212-3.25C27.558,52.385,29.435,53.718,29.425,55.232z"/>
	<path fill="#0F6991" d="M28.668,63c-1.634,0.023-2.863-1.938-1.916-3.296c0.767-1.1,1.779-2.113,2.883-2.874
		c1.358-0.937,3.327,0.324,3.286,1.952C32.884,60.256,30.138,62.979,28.668,63z"/>
</g>
<text transform="matrix(1.3208 0 0 1 27.983 24.2695)" fill="#FFFFFF" font-family="'Calibri'" font-size="14">₱</text>
</svg>
</svg>
