<svg xmlns="http://www.w3.org/2000/svg" xmlns:xlink="http://www.w3.org/1999/xlink">
<svg id="holdup-robberry" x="0px" y="0px" width="64px" height="64px" viewBox="0 0 64 64">
<g>
	<path fill="#0F6991" d="M52.563,20.315c0.223,0.148,0.409,0.234,0.546,0.369c0.434,0.428,0.869,0.857,1.267,1.317
		c0.848,0.981,0.802,1.331-0.266,2.081c-1.903,1.337-4.082,1.923-6.338,2.283c-1.171,0.187-1.919,1.239-1.696,2.401
		c0.185,0.967,1.269,1.645,2.34,1.423c0.796-0.165,1.573-0.433,2.372-0.573c2.428-0.426,4.574-1.377,6.444-3.031
		c2.157-1.908,2.275-4.778,0.337-6.935c-1.263-1.405-2.611-2.65-4.316-3.442c-1.336-0.62-2.724-1.536-4.104-1.562
		c-2.411-0.047-4.833,0.489-7.27,0.783c0.57,3.433-0.791,5.771-3.677,7.287c0.503,0.622,1.027,1.202,1.47,1.838
		c0.438,0.63,0.811,1.308,1.181,1.982c0.945,1.721,0.517,3.12-1.185,4.089c-0.24,0.137-0.401,0.459-0.535,0.727
		c-0.752,1.505-1.425,3.052-2.242,4.521c-0.789,1.419-1.755,2.738-2.578,4.139c-1.395,2.374-2.723,4.787-4.108,7.167
		c-1.372,2.359-2.788,4.693-4.168,7.047c-0.818,1.395-0.634,2.803,0.471,3.904c1.158,1.154,3.645,0.904,4.514-0.464
		c0.716-1.128,1.443-2.251,2.115-3.405c1.501-2.58,2.96-5.186,4.458-7.768c1.179-2.032,2.39-4.044,3.587-6.065
		c0.887-1.498,1.775-2.996,2.662-4.494c0.492-0.83,1.034-0.863,1.664-0.09c0.22,0.269,0.429,0.549,0.617,0.841
		c1.286,2,2.595,3.987,3.824,6.021c0.278,0.461,0.399,1.096,0.381,1.644c-0.126,3.899-0.328,7.795-0.455,11.693
		c-0.03,0.932,0.093,1.949,0.986,2.485c2.107,1.264,4.945,0.41,5.089-2.407c0.226-4.419,0.472-8.837,0.642-13.258
		c0.024-0.623-0.204-1.34-0.535-1.878c-1.594-2.595-3.219-5.174-4.929-7.693c-0.638-0.94-1.315-1.765-0.563-3.136
		c-1.888,0.585-3.6,1.141-4.744-0.748c-0.625-1.031-0.215-2.012,0.451-2.87c-1.053-1.564-1.994-3.183-3.158-4.621
		c-0.972-1.201-0.574-2.398-0.467-3.649c1.564,2.264,3.067,4.538,4.511,6.848c0.392,0.628,0.756,0.941,1.523,0.657
		c0.925-0.343,1.901-0.55,2.815-0.916c0.291-0.117,0.601-0.528,0.652-0.845C52.339,22.834,52.424,21.643,52.563,20.315z
		 M12.322,39.195c-2.217,2.748-4.484,5.491-6.668,8.299c-0.833,1.07-1.445,2.309-2.213,3.434c-0.888,1.302-0.704,2.749,0.523,3.589
		c1.191,0.815,2.611,0.508,3.476-0.782c0.321-0.479,0.527-1.04,0.869-1.501c1.899-2.559,3.572-5.293,5.913-7.508
		c1.085-1.027,2.102-2.128,3.064-3.108c1.093,0.456,1.964,0.82,2.593,1.083c-0.696,3.186-1.518,6.249-1.995,9.364
		c-0.377,2.461-0.372,4.986-0.451,7.486c-0.047,1.478,0.623,2.286,1.811,2.474c1.722,0.273,2.983-0.75,2.968-2.526
		c-0.036-4.461,0.597-8.814,1.933-13.069c0.171-0.543,0.284-1.105,0.428-1.677c1.331,0.452,2.559,0.868,3.847,1.305
		c1.035-6.233,2.255-12.305,4.85-17.856c1.409,0.606,2.723,1.2,4.06,1.737c0.981,0.394,2.013,0.543,2.895-0.201
		c0.84-0.709,0.742-1.695,0.384-2.577c-0.333-0.819-0.859-1.561-1.316-2.327c-0.805-1.349-1.807-2.327-3.568-1.854
		c-0.319,0.085-0.92,0.077-0.933,0.174c-0.058,0.433-0.051,0.933,0.123,1.324c0.199,0.446,0.6,0.803,0.913,1.198
		c-0.039,0.046-0.078,0.092-0.117,0.138c-0.928-0.614-1.857-1.229-2.769-1.832c-1.178,0.854-2.173,1.072-3.011,0.478
		c-1.721-1.221-3.052-2.798-3.569-4.882c-0.276-1.113-0.149-2.225,0.77-3.135C27.579,16,27.87,15.4,28.204,14.911
		c-1.147-0.77-2.701-1.675-4.557-1.815c-0.801-0.06-1.665-0.085-2.21,0.703c-0.579,0.836-0.533,1.77-0.027,2.559
		c0.766,1.194,1.644,2.323,2.55,3.416c0.663,0.8,0.708,0.959-0.016,1.701C22.47,22.988,21,24.508,19.532,26.03
		c-0.543,0.563-1.12,1.103-1.594,1.72c-1.285,1.673-2.551,3.361-3.772,5.081c-1.219,1.718-2.374,3.482-3.598,5.287
		C11.323,38.582,11.887,38.928,12.322,39.195z M30.676,17.063c0.003,3.025,2.45,5.516,5.416,5.516c2.962,0,5.477-2.534,5.431-5.558
		c-0.05-3.306-2.32-5.374-5.426-5.503C33.768,11.42,30.323,13.542,30.676,17.063z M49.718,8.039c0.013-2.859-2.57-5.507-5.485-5.445
		c-3.255,0.069-5.422,2.239-5.558,5.412c-0.1,2.337,1.887,5.567,5.438,5.496C47.178,13.441,49.705,11.05,49.718,8.039z
		 M30.289,15.706c-1.152-0.415-2.018,0.073-2.697,0.827c-0.855,0.949-1.02,2.099-0.663,3.348c0.499,1.746,1.65,2.978,3.055,4.011
		c1.098,0.808,2.64,0.278,3.019-1.035c0.071-0.244-0.015-0.7-0.192-0.824C30.597,20.488,29.969,18.327,30.289,15.706z M33.74,5.573
		c-0.178-0.984-0.313-1.864-0.505-2.731c-0.075-0.337-0.281-0.646-0.427-0.967c-0.238,0.255-0.527,0.479-0.706,0.771
		c-0.462,0.757-0.876,1.543-1.307,2.313c-0.627-0.588-1.207-1.156-1.817-1.69c-0.2-0.175-0.476-0.264-0.718-0.392
		c-0.075,0.287-0.207,0.572-0.216,0.86c-0.029,0.888-0.01,1.778-0.01,2.723c-0.695-0.282-1.377-0.591-2.082-0.83
		c-0.29-0.098-0.631-0.045-0.948-0.06c0.089,0.313,0.115,0.664,0.277,0.933c0.55,0.914,1.147,1.798,1.741,2.717
		c-0.919,0.304-1.726,0.571-2.532,0.838c-0.014,0.104-0.027,0.207-0.041,0.311c0.977,0.512,1.955,1.025,3.033,1.59
		c0.224-1.303-0.958-1.102-1.324-1.745c0.324-0.062,0.625-0.11,0.921-0.178c0.614-0.141,0.942-0.377,0.525-1.08
		c-0.411-0.693-0.711-1.452-1.123-2.314c0.557,0.193,1.039,0.348,1.512,0.526c0.855,0.321,0.965,0.25,0.96-0.64
		c-0.004-0.709-0.001-1.418-0.001-2.211c0.686,0.676,1.312,1.294,2.036,2.008c0.507-0.942,0.973-1.809,1.554-2.89
		c0.176,1.031,0.298,1.8,0.44,2.566c0.15,0.811,0.378,0.893,1.019,0.407c0.414-0.314,0.843-0.607,1.449-1.041
		c-0.186,0.642-0.347,1.072-0.422,1.517c-0.035,0.208,0.098,0.444,0.155,0.667c0.185-0.132,0.475-0.227,0.537-0.403
		c0.272-0.765,0.495-1.549,0.694-2.336c0.049-0.196-0.057-0.431-0.091-0.648c-0.238,0.051-0.511,0.044-0.708,0.163
		C35.006,4.698,34.424,5.114,33.74,5.573z"/>
	<path fill="#0F6991" d="M52.563,20.315c-0.139,1.328-0.223,2.519-0.413,3.694c-0.051,0.317-0.361,0.728-0.652,0.845
		c-0.914,0.366-1.891,0.573-2.815,0.916c-0.767,0.285-1.13-0.029-1.523-0.657c-1.444-2.31-2.947-4.583-4.511-6.848
		c-0.107,1.251-0.505,2.448,0.467,3.649c1.164,1.438,2.105,3.057,3.158,4.621c-0.667,0.858-1.076,1.839-0.451,2.87
		c1.145,1.889,2.856,1.333,4.744,0.748c-0.751,1.371-0.075,2.196,0.563,3.136c1.71,2.519,3.335,5.098,4.929,7.693
		c0.331,0.539,0.559,1.255,0.535,1.878c-0.17,4.421-0.416,8.839-0.642,13.258c-0.144,2.817-2.982,3.672-5.089,2.407
		c-0.893-0.536-1.016-1.553-0.986-2.485c0.126-3.899,0.329-7.795,0.455-11.693c0.018-0.548-0.103-1.183-0.381-1.644
		c-1.23-2.034-2.538-4.021-3.824-6.021c-0.188-0.292-0.398-0.572-0.617-0.841c-0.63-0.772-1.172-0.74-1.664,0.09
		c-0.888,1.498-1.775,2.996-2.662,4.494c-1.197,2.021-2.408,4.034-3.587,6.065c-1.498,2.582-2.957,5.188-4.458,7.768
		c-0.672,1.154-1.398,2.277-2.115,3.405c-0.869,1.368-3.356,1.618-4.514,0.464c-1.105-1.101-1.289-2.509-0.471-3.904
		c1.38-2.354,2.796-4.688,4.168-7.047c1.385-2.38,2.713-4.793,4.108-7.167c0.823-1.401,1.79-2.721,2.578-4.139
		c0.816-1.468,1.489-3.016,2.242-4.521c0.134-0.268,0.295-0.59,0.535-0.727c1.701-0.969,2.13-2.368,1.185-4.089
		c-0.37-0.674-0.743-1.352-1.181-1.982c-0.442-0.637-0.967-1.216-1.47-1.838c2.886-1.515,4.247-3.853,3.677-7.287
		c2.437-0.294,4.859-0.83,7.27-0.783c1.38,0.027,2.768,0.942,4.104,1.562c1.706,0.792,3.054,2.037,4.316,3.442
		c1.938,2.157,1.82,5.026-0.337,6.935c-1.87,1.654-4.016,2.605-6.444,3.031c-0.8,0.14-1.576,0.408-2.372,0.573
		c-1.072,0.221-2.155-0.457-2.34-1.423c-0.222-1.162,0.525-2.214,1.696-2.401c2.256-0.361,4.435-0.946,6.338-2.283
		c1.068-0.75,1.114-1.1,0.266-2.081c-0.398-0.46-0.833-0.889-1.267-1.317C52.972,20.548,52.785,20.462,52.563,20.315z"/>
	<path fill="#0F6991" d="M12.322,39.195c-0.435-0.267-0.998-0.614-1.752-1.077c1.224-1.805,2.378-3.569,3.598-5.287
		c1.22-1.72,2.487-3.408,3.772-5.081c0.474-0.617,1.051-1.157,1.594-1.72c1.467-1.522,2.937-3.042,4.414-4.555
		c0.725-0.742,0.679-0.901,0.016-1.701c-0.906-1.094-1.784-2.223-2.55-3.416c-0.506-0.789-0.552-1.724,0.027-2.559
		c0.545-0.788,1.409-0.763,2.21-0.703c1.856,0.14,3.411,1.045,4.557,1.815C27.873,15.4,27.582,16,27.135,16.443
		c-0.919,0.911-1.046,2.023-0.77,3.135c0.518,2.084,1.849,3.661,3.569,4.882c0.838,0.595,1.833,0.376,3.011-0.478
		c0.912,0.604,1.841,1.218,2.769,1.832c0.039-0.046,0.078-0.092,0.117-0.138c-0.313-0.396-0.714-0.752-0.913-1.198
		c-0.174-0.391-0.182-0.891-0.123-1.324c0.013-0.097,0.615-0.089,0.933-0.174c1.761-0.472,2.763,0.505,3.568,1.854
		c0.457,0.766,0.983,1.508,1.316,2.327c0.358,0.881,0.456,1.868-0.384,2.577c-0.882,0.744-1.914,0.595-2.895,0.201
		c-1.337-0.537-2.651-1.131-4.06-1.737c-2.596,5.551-3.815,11.624-4.85,17.856c-1.289-0.437-2.516-0.854-3.847-1.305
		c-0.145,0.572-0.258,1.134-0.428,1.677c-1.335,4.255-1.969,8.608-1.933,13.069c0.014,1.776-1.246,2.799-2.968,2.526
		c-1.189-0.188-1.858-0.996-1.811-2.474c0.079-2.499,0.074-5.025,0.451-7.486c0.477-3.116,1.3-6.178,1.995-9.364
		c-0.629-0.263-1.5-0.626-2.593-1.083c-0.962,0.98-1.979,2.08-3.064,3.108c-2.341,2.216-4.014,4.95-5.913,7.508
		c-0.342,0.461-0.548,1.022-0.869,1.501c-0.865,1.29-2.285,1.597-3.476,0.782c-1.227-0.84-1.411-2.287-0.523-3.589
		c0.768-1.125,1.38-2.364,2.213-3.434C7.838,44.687,10.105,41.943,12.322,39.195z"/>
	<path fill="#0F6991" d="M30.676,17.063c-0.353-3.521,3.091-5.642,5.421-5.545c3.106,0.13,5.376,2.197,5.426,5.503
		c0.046,3.024-2.469,5.557-5.431,5.558C33.126,22.579,30.68,20.088,30.676,17.063z"/>
	<path fill="#0F6991" d="M49.718,8.039c-0.013,3.011-2.54,5.402-5.604,5.463c-3.551,0.071-5.539-3.159-5.438-5.496
		c0.136-3.173,2.303-5.343,5.558-5.412C47.148,2.531,49.731,5.18,49.718,8.039z"/>
	<path fill="#0F6991" d="M30.289,15.706c-0.32,2.621,0.309,4.781,2.523,6.327c0.177,0.124,0.262,0.58,0.192,0.824
		c-0.379,1.313-1.921,1.843-3.019,1.035c-1.404-1.033-2.556-2.265-3.055-4.011c-0.357-1.249-0.192-2.398,0.663-3.348
		C28.271,15.78,29.137,15.291,30.289,15.706z"/>
	<path fill="#0F6991" d="M33.74,5.573c0.684-0.458,1.267-0.875,1.878-1.244c0.197-0.119,0.47-0.112,0.708-0.163
		c0.035,0.217,0.141,0.452,0.091,0.648c-0.199,0.787-0.423,1.571-0.694,2.336c-0.063,0.175-0.353,0.27-0.538,0.403
		c-0.057-0.223-0.19-0.459-0.155-0.667c0.075-0.445,0.236-0.875,0.422-1.517c-0.606,0.434-1.035,0.727-1.449,1.041
		c-0.641,0.486-0.868,0.404-1.019-0.407c-0.142-0.765-0.264-1.535-0.44-2.566c-0.581,1.081-1.048,1.948-1.554,2.89
		c-0.724-0.714-1.351-1.332-2.036-2.008c0,0.793-0.003,1.502,0.001,2.211c0.005,0.89-0.106,0.961-0.96,0.64
		c-0.473-0.178-0.955-0.333-1.512-0.526c0.412,0.862,0.712,1.621,1.123,2.314c0.417,0.703,0.089,0.939-0.525,1.08
		c-0.296,0.068-0.597,0.116-0.921,0.178c0.366,0.643,1.548,0.442,1.324,1.745c-1.078-0.565-2.055-1.078-3.033-1.59
		c0.014-0.104,0.027-0.207,0.041-0.311c0.807-0.267,1.613-0.534,2.532-0.838c-0.594-0.919-1.192-1.804-1.741-2.717
		c-0.162-0.269-0.189-0.62-0.277-0.933c0.318,0.015,0.658-0.038,0.948,0.06c0.706,0.239,1.387,0.548,2.082,0.83
		c0-0.944-0.018-1.834,0.01-2.723c0.009-0.289,0.14-0.574,0.216-0.86c0.241,0.128,0.518,0.216,0.718,0.392
		c0.61,0.534,1.19,1.102,1.817,1.69c0.431-0.77,0.844-1.557,1.307-2.313c0.178-0.292,0.467-0.516,0.706-0.771
		c0.146,0.322,0.352,0.63,0.427,0.967C33.427,3.708,33.562,4.588,33.74,5.573z"/>
</g>
</svg>
</svg>
