<svg xmlns="http://www.w3.org/2000/svg" xmlns:xlink="http://www.w3.org/1999/xlink">
<svg id="homicide" x="0px" y="0px" width="64px" height="64px" viewBox="0 0 64 64">
<g>
	<path fill="#FFFFFF" d="M42.287,17.969c-0.1,0.838-0.199,1.676-0.322,2.705c2.833,1.923,5.58,4.221,9.633,3.166
		c-2.32-2.354-4.816-4.399-7.43-6.279c-0.355-0.255-1.3,0.31-1.973,0.495c0.203-0.393,0.395-0.793,0.612-1.178
		c0.737-1.311,1.006-2.79-0.647-3.301c-0.793-0.245-2.128,0.586-2.94,1.263c-0.93,0.776-1.462,2.01-2.326,2.887
		c-2.108,2.139-3.556,2.11-5.924,0.052c0.351-0.195,1.028-0.491,1.004-0.569c-0.53-1.699-1.624-2.737-3.51-2.633
		c-3.843,0.212-7.083,1.707-9.422,4.802c-2.875,3.803-3.227,8.231-2.549,12.723c0.147,0.972,1.484,2.443,2.335,2.488
		c1.707,0.089,1.758-1.504,1.702-2.954c-0.094-2.434-0.026-4.874-0.026-7.312c0.31,0.001,0.619,0.002,0.929,0.003
		c0,2.806-0.142,5.622,0.065,8.412c0.093,1.248,0.554,2.846,1.436,3.575c1.644,1.36,1.784,2.973,1.732,4.76
		c-0.152,5.21-1.513,9.983-5.05,13.993c-1.812,2.055-1.89,4.059-0.364,5.371c1.529,1.315,3.604,1.01,5.238-1.202
		c2.021-2.737,3.739-5.699,5.911-9.065c-0.48,2.472-0.773,4.476-1.271,6.428c-0.747,2.93-0.184,4.648,1.914,5.255
		c2.049,0.593,3.5-0.569,4.379-3.521c2.072-6.955,1.606-13.842-1.535-20.279c-2.187-4.481-4.294-8.723-2.594-13.832
		c0.097-0.292-0.119-0.687-0.189-1.035c2.603,0.545,5.148,0.491,7.279-1.299C39.787,20.71,40.987,19.291,42.287,17.969z
		 M30.939,13.605c3.184,0.019,5.788-2.502,5.86-5.673c0.073-3.225-2.668-5.979-5.903-5.931c-3.162,0.047-5.681,2.64-5.675,5.841
		C25.226,11.052,27.74,13.586,30.939,13.605z"/>
	<path fill="#0F6991" d="M31.106,23.188c0.07,0.347,0.286,0.743,0.189,1.035c-1.7,5.109,0.407,9.351,2.594,13.832
		c3.142,6.437,3.607,13.324,1.535,20.279c-0.879,2.952-2.33,4.115-4.379,3.521c-2.098-0.607-2.661-2.325-1.914-5.255
		c0.498-1.952,0.791-3.957,1.271-6.428c-2.172,3.366-3.89,6.328-5.911,9.065c-1.633,2.212-3.708,2.517-5.238,1.202
		c-1.526-1.312-1.448-3.316,0.364-5.371c3.537-4.011,4.898-8.784,5.05-13.993c0.052-1.787-0.088-3.4-1.732-4.76
		c-0.881-0.729-1.343-2.328-1.436-3.575c-0.207-2.79-0.065-5.606-0.065-8.412c-0.31-0.001-0.619-0.002-0.929-0.003
		c0,2.438-0.069,4.878,0.026,7.312c0.056,1.45,0.005,3.043-1.702,2.954c-0.851-0.044-2.189-1.515-2.335-2.488
		c-0.677-4.492-0.325-8.921,2.549-12.723c2.339-3.095,5.801-5.534,9.676-5.253c2.813,0.313,3.151,2.421,3.257,3.084
		c0.105,0.663,0.227,1.502,0.227,1.502c-1.015,1.914-3.63-3.063-5.025-1.467c-1.324,1.513-0.387,2.866,0.822,3.902
		C28.932,21.946,30.063,22.516,31.106,23.188z"/>
	<path fill="#0F6991" d="M30.939,13.605c-3.199-0.019-5.712-2.553-5.718-5.763c-0.006-3.202,2.513-5.795,5.675-5.841
		c3.235-0.048,5.977,2.706,5.903,5.931C36.727,11.103,34.122,13.624,30.939,13.605z"/>
	<path fill="#0F6991" d="M31.106,23.188c-1.043-0.672-2.174-1.242-3.107-2.042c-1.209-1.036-2.146-2.389-0.822-3.902
		c1.396-1.596,2.674-0.699,3.795,0.534c2.368,2.058,3.816,2.087,5.924-0.052c0.865-0.877,1.396-2.112,2.326-2.887
		c0.812-0.677,2.147-1.508,2.94-1.263c1.653,0.511,1.384,1.99,0.647,3.301c-0.217,0.386-0.409,0.785-0.612,1.178l0.081-0.076
		c-1.29,1.312-2.49,2.731-3.892,3.91C36.254,23.679,33.708,23.732,31.106,23.188z"/>
	<path fill="#0F6991" d="M42.196,18.055c0.672-0.185,1.617-0.75,1.973-0.495c2.614,1.88,5.11,3.925,7.43,6.279
		c-4.053,1.055-6.799-1.243-9.633-3.166c0.122-1.029,0.222-1.867,0.317-2.7C42.277,17.979,42.196,18.055,42.196,18.055z"/>
</g>
</svg>
</svg>
