<svg xmlns="http://www.w3.org/2000/svg" xmlns:xlink="http://www.w3.org/1999/xlink">
<svg id="illegal-drug" x="0px" y="0px" width="64px" height="64px" viewBox="0 0 64 64">
<path fill="#0F6991" d="M1.117,31.947c-0.015-2.667,0.866-4.441,2.408-5.704c1.876-1.537,4.149-1.952,6.482-1.093
	c1.351,0.498,2.636,1.185,3.928,1.831c2.001,1.001,3.98,2.046,5.974,3.062c1.027,0.523,2.12,0.939,3.083,1.559
	c0.716,0.462,1.342,1.117,1.881,1.787c1.455,1.809,1.903,3.882,1.15,6.092c-1.285,3.775-5.338,5.566-8.735,4.158
	c-1.962-0.814-3.814-1.893-5.719-2.846c-1.412-0.706-2.832-1.396-4.243-2.105c-1.129-0.568-2.349-1.018-3.351-1.76
	C2.154,35.577,1.167,33.689,1.117,31.947z M11.913,38.605c0.111,0.074,0.21,0.156,0.322,0.213c1.829,0.932,3.633,1.917,5.496,2.774
	c2.077,0.956,4.326,0.269,5.567-1.541c1.403-2.047,1.021-5.278-1.605-6.596c-1.506-0.756-2.989-1.561-4.491-2.326
	c-2.396-1.22-4.786-2.454-7.206-3.626c-2.453-1.188-4.466-0.116-5.82,1.677c-0.33,0.437-0.358,0.921,0.166,1.226
	c0.478,0.278,0.822,0.033,1.109-0.41c1.014-1.561,2.51-1.965,4.209-1.118c1.416,0.706,2.804,1.469,4.21,2.194
	c0.461,0.238,0.942,0.438,1.542,0.715C14.228,34.096,13.079,36.334,11.913,38.605z"/>
<path fill="#0F6991" d="M20.576,3.631c2.029-0.053,3.665,0.602,4.883,1.829c3.092,3.114,2.481,7.998-0.828,10.32
	c-0.769,0.54-1.675,0.883-2.514,1.325c-1.354,0.713-2.7,1.443-4.057,2.149c-1.988,1.033-3.945,2.137-5.984,3.056
	c-2.6,1.172-6.118,0.868-8.28-1.736C1.7,18.05,1.975,13.227,4.733,11.15c0.375-0.283,0.781-0.535,1.2-0.748
	c1.736-0.885,3.495-1.726,5.222-2.627c1.567-0.817,3.064-1.781,4.667-2.514C17.405,4.538,18.9,3.453,20.576,3.631z M13.287,10.765
	c0.505-0.282,0.933-0.544,1.379-0.767c1.6-0.799,3.178-1.652,4.82-2.356c1.419-0.608,3.135-0.008,3.795,1.231
	c0.255,0.478,0.518,0.665,0.982,0.378c0.446-0.276,0.477-0.705,0.201-1.1c-1.346-1.93-3.24-2.897-5.694-1.869
	c-1.5,0.629-2.93,1.428-4.38,2.173c-1.314,0.675-2.606,1.393-3.92,2.069c-1.145,0.589-2.363,1.056-3.442,1.745
	c-0.75,0.479-1.468,1.148-1.939,1.897c-1.056,1.678-0.616,4.173,0.806,5.464c1.507,1.368,3.945,1.595,5.605,0.544
	c0.373-0.236,0.796-0.392,1.19-0.597c1.344-0.698,2.685-1.401,3.975-2.075C15.508,15.197,14.411,13.007,13.287,10.765z"/>
<path fill="#0F6991" d="M24.539,27.817c0.45-1.479,0.885-2.963,1.353-4.436c0.892-2.812,1.803-5.619,2.707-8.427
	c0.25-0.778,0.458-1.573,0.773-2.324c0.221-0.526,0.504-1.083,0.912-1.461c1.081-1.003,2.219-1.951,3.742-2.251
	c1.615-0.318,3.096-0.065,4.588,0.68c3.143,1.571,4.008,5.51,3.168,7.985c-1.203,3.545-2.337,7.114-3.423,10.696
	c-0.43,1.417-0.828,2.781-1.751,4.012c-2.447,3.265-7.654,2.939-9.681,0.813C25.543,31.654,24.588,29.982,24.539,27.817z
	 M30.436,21.212c0.01-0.192-0.003-0.273,0.019-0.343c0.667-2.11,1.325-4.222,2.019-6.323c0.102-0.308,0.34-0.6,0.583-0.826
	c0.905-0.839,1.942-1.249,3.195-0.893c0.49,0.139,0.922-0.085,0.952-0.553c0.019-0.29-0.292-0.777-0.56-0.871
	c-0.53-0.184-1.142-0.252-1.705-0.2c-2.065,0.192-3.281,1.519-3.913,3.34c-1.314,3.784-2.506,7.61-3.779,11.408
	c-0.924,2.757-0.397,4.427,1.99,6.06c1.912,1.308,5.364,0.253,6.162-1.919c0.737-2.006,1.416-4.033,2.114-6.053
	c0.064-0.186,0.079-0.389,0.119-0.599C35.207,22.689,32.845,21.958,30.436,21.212z"/>
<path fill="#FFFFFF" d="M11.913,38.605c1.166-2.271,2.315-4.509,3.501-6.819c-0.601-0.277-1.081-0.477-1.542-0.715
	c-1.407-0.726-2.794-1.488-4.21-2.194c-1.699-0.847-3.195-0.443-4.209,1.118c-0.288,0.443-0.631,0.688-1.109,0.41
	C3.82,30.1,3.847,29.616,4.178,29.179c1.354-1.792,3.367-2.865,5.82-1.677c2.42,1.172,4.809,2.407,7.206,3.626
	c1.502,0.765,2.985,1.569,4.491,2.326c2.625,1.318,3.008,4.549,1.605,6.596c-1.241,1.81-3.49,2.497-5.567,1.541
	c-1.863-0.858-3.667-1.843-5.496-2.774C12.123,38.76,12.024,38.679,11.913,38.605z"/>
<path fill="#FFFFFF" d="M13.287,10.765c1.124,2.242,2.221,4.432,3.376,6.736c-1.29,0.674-2.631,1.377-3.975,2.075
	c-0.394,0.205-0.817,0.36-1.19,0.597c-1.66,1.051-4.098,0.824-5.605-0.544c-1.421-1.291-1.862-3.785-0.806-5.464
	c0.471-0.749,1.189-1.418,1.939-1.897c1.079-0.689,2.297-1.156,3.442-1.745c1.314-0.675,2.606-1.393,3.92-2.069
	c1.45-0.745,2.88-1.544,4.38-2.173c2.454-1.028,4.348-0.061,5.694,1.869c0.276,0.395,0.245,0.825-0.201,1.1
	c-0.464,0.287-0.727,0.1-0.982-0.378c-0.66-1.239-2.376-1.839-3.795-1.231c-1.642,0.704-3.22,1.557-4.82,2.356
	C14.22,10.221,13.792,10.483,13.287,10.765z"/>
<path fill="#FFFFFF" d="M30.436,21.212c2.409,0.746,4.771,1.477,7.197,2.229c-0.041,0.21-0.055,0.413-0.119,0.599
	c-0.698,2.02-1.377,4.047-2.114,6.053c-0.798,2.172-4.25,3.227-6.162,1.919c-2.386-1.633-2.914-3.303-1.99-6.06
	c1.273-3.798,2.465-7.624,3.779-11.408c0.633-1.821,1.848-3.147,3.913-3.34c0.563-0.052,1.175,0.015,1.705,0.2
	c0.269,0.094,0.579,0.581,0.56,0.871c-0.03,0.469-0.461,0.693-0.952,0.553c-1.253-0.356-2.291,0.054-3.195,0.893
	c-0.243,0.226-0.482,0.518-0.583,0.826c-0.695,2.1-1.353,4.213-2.019,6.323C30.433,20.939,30.446,21.02,30.436,21.212z"/>
<g>
	<path fill="#0F6991" d="M45.467,55.436c0,1.78,0.002,3.561-0.001,5.341c-0.001,0.947-0.025,0.967-0.974,0.968
		c-0.494,0-0.99-0.016-1.483,0.004c-0.574,0.023-0.816-0.225-0.811-0.805c0.016-1.72,0.006-3.44,0.005-5.16
		c0-0.119-0.012-0.239-0.022-0.428c-0.487,0.434-0.94,0.786-1.331,1.197c-1.716,1.805-3.988,2.437-6.29,2.996
		c-0.224,0.054-0.602-0.046-0.728-0.212c-0.119-0.157-0.079-0.532,0.025-0.747c0.844-1.757,1.953-3.321,3.445-4.595
		c0.043-0.036,0.06-0.102,0.078-0.133c-0.621,0-1.238-0.015-1.855,0.003c-2.818,0.081-5.443-0.626-7.926-1.92
		c-0.816-0.425-1.637-0.847-2.419-1.33c-0.699-0.432-0.655-0.954,0.111-1.243c3.017-1.137,6.097-1.941,9.481-1.551
		c-0.655-0.699-1.24-1.334-1.836-1.958c-1.851-1.937-3.124-4.244-4.17-6.674c-0.411-0.956-0.613-2.008-0.855-3.03
		c-0.152-0.641,0.232-0.948,0.845-0.712c2.545,0.982,5.048,2.05,7.167,3.827c1.354,1.135,2.689,2.291,3.972,3.387
		c-0.077-1.092-0.28-2.303-0.217-3.5c0.085-1.6,0.354-3.193,0.586-4.782c0.382-2.617,1.598-4.921,2.808-7.219
		c0.153-0.291,0.482-0.662,0.746-0.674c0.248-0.012,0.597,0.352,0.765,0.632c2.795,4.69,3.959,9.736,3.25,15.18
		c-0.016,0.126-0.023,0.253-0.044,0.494c0.811-0.775,1.55-1.481,2.289-2.187c0.263-0.251,0.502-0.534,0.79-0.751
		c2.426-1.833,5.055-3.304,7.911-4.356c0.875-0.323,1.098-0.139,0.978,0.798c-0.253,1.981-1.106,3.751-2.092,5.436
		c-0.849,1.45-1.849,2.819-2.858,4.166c-0.456,0.609-1.098,1.079-1.655,1.613c-0.058,0.055-0.104,0.122-0.276,0.325
		c1.348,0,2.562-0.083,3.761,0.019c2,0.169,3.904,0.793,5.762,1.522c0.771,0.302,0.795,0.788,0.088,1.24
		c-3.243,2.073-6.708,3.437-10.647,3.241c-0.492-0.024-0.986-0.003-1.523-0.003c0.077,0.095,0.145,0.214,0.244,0.295
		c1.496,1.227,2.49,2.824,3.331,4.53c0.267,0.541-0.021,0.938-0.631,0.893c-0.233-0.017-0.464-0.082-0.692-0.138
		C49.84,58.776,47.442,57.537,45.467,55.436z"/>
</g>
</svg>
</svg>
