<svg xmlns="http://www.w3.org/2000/svg" xmlns:xlink="http://www.w3.org/1999/xlink">
<svg id="illegal-logging" x="0px" y="0px" width="64px" height="64px" viewBox="0 0 64 64">
<path fill="#FFFFFF" d="M46.487,38.429c2.281,0.062,2.585-0.264,2.569-1.944c-0.006-0.585-0.001-1.204,0.173-1.753
	c0.981-3.097,1.944-6.203,3.049-9.256c1.567-4.328,3.31-8.594,4.854-12.93c0.455-1.278,0.557-2.7,0.692-4.068
	c0.085-0.859-0.434-1.29-1.327-1.553c-0.957-0.282-1.921-0.791-2.673-1.443c-0.74-0.64-1.233-1.573-1.807-2.395
	c-1.094-1.566-1.983-1.688-3.174-0.162c-1.015,1.301-1.978,2.706-2.643,4.207c-3.602,8.133-7.091,16.317-10.661,24.465
	c-0.397,0.906-0.209,1.512,0.473,2.082C39.239,36.375,42.993,37.842,46.487,38.429z"/>
<path fill="#FFFFFF" d="M39.655,60.66c4.469-0.557,8.905-1.078,13.33-1.68c1.454-0.198,1.522-0.391,0.993-1.762
	c-0.923-2.39-1.926-4.748-2.833-7.143c-0.918-2.426-1.859-4.853-2.582-7.34c-0.26-0.894-0.368-1.617-1.373-1.908
	c-3.351-0.971-6.736-1.264-10.165-0.524c-1.122,0.242-2.115,0.761-2.446,1.995c-0.537,2.004-1.03,4.019-1.561,6.024
	c-0.175,0.66-0.271,1.399-0.641,1.939c-1.447,2.112-2.993,4.156-4.494,6.231c-1.35,1.866-1.248,2.32,1.049,2.706
	C32.477,59.791,36.057,60.18,39.655,60.66z"/>
<path fill="#0F6991" d="M16.533,43.083c1.695,1.242,2.611,2.722,2.964,4.566c0.466,2.43-0.015,4.737-0.797,7.039
	c-0.578,1.701,0.2,3.119,1.808,3.603c1.383,0.417,2.819-0.363,3.252-1.979c0.491-1.832,0.93-3.7,1.135-5.581
	c0.501-4.585-0.975-8.468-4.54-11.468c-0.399-0.336-1.002-0.418-1.452-0.709c-0.901-0.583-2.018-1.066-2.551-1.905
	c-0.374-0.589-0.789-0.959-1.292-1.309c-3.026-2.1-4.083-5.869-2.501-9.202c0.235-0.495,0.686-0.981,1.162-1.248
	c0.803-0.452,1.632-0.234,2.293,0.4c0.711,0.681,0.754,1.522,0.434,2.403c-0.404,1.113-0.592,2.216,0.105,3.289
	c0.051,0.079,0.148,0.128,0.25,0.213c0.118-0.21,0.219-0.388,0.329-0.584c0.354,0.334,0.652,0.616,0.997,0.941
	c1.139-1.657,2.721-0.604,4.307-0.717c-2.411-1.92-4.175-4.149-5.565-6.702c-0.242-0.445-0.893-0.777-1.423-0.937
	c-2.063-0.622-4.4,0.802-5.357,3.248c-1.521,3.89-1.994,7.916-1.385,12.051c0.181,1.227,0.693,2.298,1.698,3.127
	c0.346,0.286,0.642,0.806,0.691,1.25c0.3,2.682-0.505,5.106-2.108,7.21c-0.998,1.311-2.213,2.465-3.391,3.629
	c-0.767,0.759-1.083,1.609-0.821,2.631c0.261,1.02,0.936,1.655,1.973,1.936c1.029,0.279,1.834-0.122,2.571-0.751
	C13.704,53.789,16.554,49.263,16.533,43.083z"/>
<path fill="#0F6991" d="M18.074,13.392c-2.663,0.008-4.804,2.187-4.777,4.861c0.026,2.615,2.188,4.738,4.811,4.725
	c2.633-0.013,4.749-2.127,4.77-4.766C22.9,15.531,20.76,13.383,18.074,13.392z"/>
<path fill="#0F6991" d="M12.089,29.321c0.049,0.015,0.098,0.03,0.147,0.045c0.022,0.345,0.017,0.694,0.07,1.034
	c0.517,3.261,4.222,6.396,7.534,6.37c0.92-0.007,1.496-0.511,1.71-1.383c0.199-0.81-0.338-1.663-1.175-1.958
	c-0.845-0.297-1.732-0.506-2.53-0.897c-1.733-0.849-2.348-2.049-2.081-3.872c0.059-0.404,0.245-0.789,0.36-1.187
	c0.297-1.025-0.068-1.91-0.925-2.256c-0.92-0.371-1.881,0.003-2.265,1.035C12.565,27.242,12.364,28.295,12.089,29.321z"/>
<path fill="#0F6991" d="M17.971,36.794c-0.096,0.09-0.191,0.18-0.287,0.27c0.408,0.371,0.772,0.987,1.232,1.071
	c1.835,0.334,3.699,0.507,5.553,0.729c0.923,0.11,1.47-0.325,1.593-1.231c0.195-1.439,0.356-2.883,0.521-4.326
	c0.111-0.969-0.32-1.499-1.299-1.622c-1.75-0.22-3.493-0.5-5.247-0.678c-0.397-0.04-0.904,0.137-1.222,0.389
	c-0.602,0.476-0.455,1.01,0.288,1.268c0.489,0.17,1.006,0.266,1.49,0.449c0.96,0.362,1.521,1.36,1.345,2.321
	c-0.191,1.043-1.058,1.77-2.149,1.702C19.178,37.096,18.577,36.912,17.971,36.794z"/>
<path fill="#0F6991" d="M46.487,38.429c-3.494-0.587-7.248-2.054-10.475-4.748c-0.682-0.57-0.87-1.176-0.473-2.082
	c3.57-8.148,7.059-16.331,10.661-24.465c0.665-1.501,1.628-2.906,2.643-4.207c1.191-1.527,2.08-1.404,3.174,0.162
	c0.575,0.823,1.068,1.755,1.807,2.395c0.752,0.651,1.717,1.161,2.673,1.443c0.893,0.263,1.412,0.694,1.327,1.553
	c-0.135,1.368-0.237,2.79-0.692,4.068c-1.544,4.336-3.287,8.602-4.854,12.93c-1.106,3.053-2.068,6.159-3.049,9.256
	c-0.174,0.548-0.178,1.167-0.173,1.753C49.072,38.165,48.769,38.491,46.487,38.429z M36.902,31.528
	c0.122,0.058,0.243,0.117,0.365,0.175c0.269-0.509,0.584-0.999,0.801-1.529c1.391-3.397,2.666-6.845,4.161-10.195
	c1.919-4.3,4.019-8.52,6.016-12.785c0.427-0.911,0.748-1.872,1.118-2.809C49.216,4.323,49.068,4.261,48.92,4.2
	C43.84,12.833,40.306,22.151,36.902,31.528z"/>
<path fill="#0F6991" d="M39.655,60.66c-3.598-0.48-7.178-0.868-10.723-1.463c-2.296-0.385-2.399-0.839-1.049-2.706
	c1.501-2.075,3.047-4.119,4.494-6.231c0.37-0.54,0.467-1.279,0.641-1.939c0.531-2.005,1.024-4.02,1.561-6.024
	c0.331-1.234,1.324-1.753,2.446-1.995c3.429-0.739,6.814-0.447,10.165,0.524c1.005,0.291,1.113,1.014,1.373,1.908
	c0.723,2.487,1.664,4.914,2.582,7.34c0.906,2.395,1.91,4.754,2.833,7.143c0.529,1.371,0.461,1.565-0.993,1.762
	C48.56,59.582,44.124,60.103,39.655,60.66z M36.048,41.548c-0.01,0.141-0.02,0.282-0.03,0.423c0.486,0.261,0.946,0.606,1.463,0.764
	c0.855,0.261,1.738,0.469,2.624,0.581c2.198,0.278,4.407,0.472,6.584-0.154c0.266-0.076,0.477-0.342,0.713-0.519
	c-0.195-0.218-0.361-0.477-0.593-0.642c-0.218-0.154-0.502-0.224-0.765-0.305c-2.583-0.793-5.232-0.934-7.901-0.703
	C37.435,41.054,36.747,41.356,36.048,41.548z M30.043,56.57c2.359-0.655,4.904-5.696,4.643-8.144
	c-0.652,1.475-1.187,3.004-1.978,4.386C31.92,54.188,30.875,55.416,30.043,56.57z"/>
<path fill="#0F6991" d="M16.533,43.083c0.02,6.18-2.829,10.706-7.212,14.446c-0.737,0.629-1.542,1.03-2.571,0.751
	c-1.037-0.282-1.712-0.916-1.973-1.936c-0.262-1.022,0.054-1.873,0.821-2.631c1.177-1.164,2.392-2.318,3.391-3.629
	c1.602-2.104,2.408-4.528,2.108-7.21c-0.05-0.443-0.345-0.964-0.691-1.25c-1.005-0.829-1.517-1.9-1.698-3.127
	c-0.609-4.135-0.137-8.161,1.385-12.051c0.956-2.446,3.294-3.87,5.357-3.248c0.53,0.16,1.18,0.492,1.423,0.937
	c1.391,2.553,3.155,4.781,5.565,6.702c-1.586,0.113-3.168-0.94-4.307,0.717c-0.344-0.325-0.643-0.607-0.997-0.941
	c-0.11,0.196-0.211,0.375-0.329,0.584c-0.102-0.085-0.199-0.135-0.25-0.213c-0.698-1.074-0.51-2.176-0.105-3.289
	c0.32-0.881,0.277-1.722-0.434-2.403c-0.662-0.634-1.491-0.851-2.293-0.4c-0.476,0.268-0.927,0.753-1.162,1.248
	c-1.582,3.333-0.525,7.102,2.501,9.202c0.504,0.35,0.918,0.72,1.292,1.309c0.533,0.839,1.65,1.322,2.551,1.905
	c0.449,0.291,1.052,0.373,1.452,0.709c3.565,3,5.041,6.883,4.54,11.468c-0.205,1.88-0.644,3.749-1.135,5.581
	c-0.433,1.616-1.869,2.396-3.252,1.979c-1.608-0.485-2.386-1.902-1.808-3.603c0.782-2.301,1.262-4.609,0.797-7.039
	C19.144,45.804,18.228,44.325,16.533,43.083z"/>
<path fill="#0F6991" d="M18.074,13.392c2.685-0.008,4.826,2.139,4.804,4.82c-0.022,2.639-2.138,4.753-4.77,4.766
	c-2.623,0.012-4.785-2.111-4.811-4.725C13.27,15.578,15.411,13.4,18.074,13.392z"/>
<path fill="#0F6991" d="M12.089,29.321c0.275-1.025,0.476-2.078,0.845-3.069c0.384-1.032,1.345-1.407,2.265-1.035
	c0.856,0.346,1.222,1.231,0.925,2.256c-0.115,0.397-0.301,0.782-0.36,1.187c-0.267,1.824,0.348,3.023,2.081,3.872
	c0.798,0.391,1.685,0.6,2.53,0.897c0.837,0.294,1.374,1.148,1.175,1.958c-0.214,0.872-0.789,1.376-1.71,1.383
	c-3.312,0.025-7.016-3.109-7.534-6.37c-0.054-0.34-0.048-0.689-0.07-1.034C12.187,29.351,12.138,29.336,12.089,29.321z"/>
<path fill="#0F6991" d="M17.971,36.794c0.606,0.118,1.207,0.302,1.818,0.341c1.091,0.069,1.959-0.659,2.149-1.702
	c0.176-0.961-0.385-1.959-1.345-2.321c-0.484-0.183-1-0.278-1.49-0.449c-0.743-0.258-0.89-0.792-0.288-1.268
	c0.318-0.252,0.826-0.429,1.222-0.389c1.754,0.178,3.497,0.458,5.247,0.678c0.979,0.123,1.41,0.654,1.299,1.622
	c-0.165,1.443-0.326,2.887-0.521,4.326c-0.123,0.905-0.67,1.341-1.593,1.231c-1.854-0.222-3.719-0.395-5.553-0.729
	c-0.46-0.084-0.824-0.699-1.232-1.071C17.78,36.974,17.875,36.884,17.971,36.794z"/>
<path fill="#FFFFFF" d="M36.902,31.528C40.306,22.151,43.84,12.833,48.92,4.2c0.148,0.061,0.296,0.123,0.445,0.184
	c-0.37,0.938-0.692,1.898-1.118,2.809c-1.997,4.266-4.097,8.485-6.016,12.785c-1.495,3.35-2.77,6.798-4.161,10.195
	c-0.217,0.53-0.532,1.02-0.801,1.529C37.145,31.645,37.024,31.586,36.902,31.528z"/>
<path fill="#FFFFFF" d="M36.048,41.548c0.698-0.191,1.387-0.493,2.096-0.555c2.669-0.231,5.317-0.089,7.901,0.703
	c0.263,0.081,0.547,0.15,0.765,0.305c0.233,0.165,0.398,0.424,0.593,0.642c-0.236,0.178-0.448,0.443-0.713,0.519
	c-2.177,0.626-4.386,0.432-6.584,0.154c-0.886-0.112-1.77-0.32-2.624-0.581c-0.517-0.158-0.978-0.503-1.463-0.764
	C36.028,41.83,36.038,41.689,36.048,41.548z M45.197,42.544c-1.377-1.248-5.896-1.583-6.911-0.563
	C39.532,43.098,43.768,43.474,45.197,42.544z"/>
<path fill="#FFFFFF" d="M30.043,56.57c0.832-1.153,1.877-2.382,2.665-3.758c0.792-1.382,1.327-2.912,1.978-4.386
	C34.947,50.873,32.402,55.915,30.043,56.57z"/>
<path fill="#0F6991" d="M45.197,42.544c-1.428,0.93-5.664,0.554-6.911-0.563C39.301,40.962,43.819,41.296,45.197,42.544z"/>
<path fill="#0F6991" d="M26.845,36.161l9.819,1.037c0.233,0.025,0.401,0.233,0.377,0.466c-0.025,0.233-0.233,0.401-0.466,0.377
	l-9.819-1.037L26.6,38.479l10.196,1.077c1.098,0.116,2.082-0.68,2.198-1.778c0.116-1.098-0.68-2.082-1.778-2.198L27.02,34.503
	L26.845,36.161z"/>
</svg>
</svg>
