<svg xmlns="http://www.w3.org/2000/svg" xmlns:xlink="http://www.w3.org/1999/xlink">
<svg id="kidnapping" x="0px" y="0px" width="64px" height="64px" viewBox="0 0 64 64">
<g>
	<path fill="#FFFFFF" d="M40.366,44.332c0.198,0.182,0.479,0.358,0.65,0.609c1.702,2.504,3.589,4.912,5.012,7.567
		c1.175,2.192,1.814,4.674,2.655,7.041c0.689,1.939,2.389,2.944,4.23,2.439c1.673-0.458,2.671-2.384,2.269-4.259
		c-0.975-4.541-2.982-8.659-5.486-12.491c-1.646-2.518-3.745-4.746-5.7-7.054c-0.736-0.869-1.638-1.596-2.449-2.373
		c-1.727,1.299-3.085,1.301-4.208,0.023c-0.379-0.431-0.629-0.973-0.966-1.443c-0.163-0.227-0.394-0.406-0.595-0.607
		c-0.111,0.287-0.282,0.567-0.323,0.864c-0.161,1.177-0.146,2.396-0.447,3.532c-0.541,2.041-1.442,3.97-1.854,6.069
		c-0.231,1.179-0.658,2.416-1.337,3.389c-1.151,1.648-2.444,3.246-3.916,4.607c-1.376,1.272-3.021,2.274-4.623,3.274
		c-1.361,0.85-2.02,2.388-1.573,4.202c0.333,1.352,1.693,2.43,3.175,2.336c0.677-0.043,1.403-0.302,1.987-0.66
		c2.58-1.583,4.998-3.353,7.145-5.54c1.865-1.899,3.293-4.044,4.437-6.382C39.231,47.879,39.708,46.131,40.366,44.332z
		 M39.842,9.764c-0.004,3.368,2.732,6.003,6.172,6.079c3.677,0.081,6.126-3.058,5.993-6.12c-0.163-3.747-2.246-5.828-5.981-5.998
		C42.763,3.576,39.727,6.244,39.842,9.764z M38.367,18.005c-0.535,0.264-1.14,0.44-1.591,0.807
		c-1.737,1.413-2.702,3.303-2.891,5.505c-0.37,4.318,1.593,7.884,3.962,11.237c0.901,1.276,2.943,0.77,3.543-0.72
		c0.329-0.816,0.07-1.493-0.377-2.178c-1.296-1.985-2.33-4.092-2.735-6.451c-0.254-1.475,0.02-2.813,1.169-3.897
		c0.345-0.325,0.653-0.726,0.862-1.15C40.991,19.771,39.963,18.144,38.367,18.005z M33.203,26.463
		c-3.188,0.738-4.568,3.08-3.312,6.01c0.975,2.272,0.716,4.334-0.39,6.39c-0.449,0.835-1.006,1.617-1.565,2.386
		c-0.626,0.862-0.524,2.397,0.254,3.011c0.89,0.703,2.608,0.619,3.258-0.296c0.833-1.174,1.599-2.41,2.251-3.692
		c1.061-2.087,1.423-4.335,1.125-6.641c0.319-0.142,0.58-0.257,0.863-0.383c-0.514-1.117-1.081-2.171-1.489-3.284
		C33.792,28.853,33.543,27.684,33.203,26.463z M51.889,33.564c2.564-0.022,4.705-2.189,4.69-4.747
		c-0.015-2.557-2.295-4.808-4.836-4.776c-2.525,0.032-4.665,2.24-4.666,4.815C47.076,31.554,49.154,33.587,51.889,33.564z
		 M38.886,24.535c2.965,0.477,3.114,0.38,3.683-2.388c0.045-0.221,0.113-0.438,0.152-0.659c0.286-1.607,0.19-3.178-0.736-4.563
		c-0.335-0.501-0.869-0.996-1.422-1.205c-2.776-1.048-5.752,0.217-7.073,3.193c-0.799,1.801-1.201,3.781-1.747,5.691
		c-0.172,0.6-0.231,1.233-0.347,1.886c1.708-0.233,1.805-0.344,1.893-1.793c0.162-2.659,1.353-4.801,3.372-6.489
		c1.128-0.943,2.654-0.801,3.641,0.274c1.049,1.143,1.015,2.665-0.123,3.798C39.537,22.92,38.864,23.521,38.886,24.535z
		 M28.226,22.948c-7.737,0-15.365,0-23.03,0c0,0.467,0,0.872,0,1.306c7.703,0,15.354,0,23.03,0
		C28.226,23.793,28.226,23.413,28.226,22.948z M41.448,29.176c0.174,0.491,0.241,0.736,0.344,0.965
		c0.567,1.261,1.084,2.548,1.728,3.768c0.823,1.558,1.711,3.085,2.651,4.575c0.473,0.75,1.223,0.843,1.826,0.33
		c0.606-0.517,0.764-1.109,0.277-1.866c-0.536-0.832-0.967-1.734-1.416-2.619c-0.943-1.862-1.856-3.739-2.806-5.596
		c-0.29-0.566-0.823-0.945-1.427-0.648C42.147,28.319,41.806,28.83,41.448,29.176z M45.562,30.657
		c0.812-1.194,0.328-3.205-0.821-4.095c-1.776-1.376-3.795-1.571-6.029-1.278c0.263,2.566,1.194,4.818,2.633,6.873
		c0.101,0.144,0.426,0.131,0.854,0.248c-0.363-0.851-0.625-1.498-0.913-2.133c-0.491-1.081-0.166-2.098,0.852-2.611
		c0.933-0.47,1.96-0.083,2.484,0.962C44.936,29.251,45.212,29.898,45.562,30.657z M15.864,26.632c-2.379,0-4.708,0-7.049,0
		c0,0.514,0,0.95,0,1.408c2.379,0,4.688,0,7.049,0C15.864,27.548,15.864,27.112,15.864,26.632z M16.755,20.451
		c2.433,0,4.765,0,7.082,0c0-0.453,0-0.831,0-1.223c-2.379,0-4.709,0-7.082,0C16.755,19.666,16.755,20.042,16.755,20.451z"/>
	<path fill="#0F6991" d="M40.366,44.332c-0.657,1.799-1.135,3.547-1.917,5.145c-1.144,2.337-2.572,4.482-4.437,6.382
		c-2.148,2.187-4.565,3.957-7.145,5.54c-0.583,0.358-1.31,0.617-1.987,0.66c-1.482,0.094-2.842-0.984-3.175-2.336
		c-0.446-1.814,0.213-3.352,1.573-4.202c1.602-1.001,3.247-2.002,4.623-3.274c1.472-1.361,2.765-2.959,3.916-4.607
		c0.679-0.973,1.106-2.21,1.337-3.389c0.412-2.099,1.313-4.028,1.854-6.069c0.301-1.137,0.286-2.355,0.447-3.532
		c0.041-0.297,0.212-0.576,0.323-0.864c0.2,0.201,0.431,0.379,0.595,0.607c0.338,0.47,0.588,1.012,0.966,1.443
		c1.123,1.278,2.481,1.276,4.208-0.023c0.811,0.777,1.713,1.505,2.449,2.373c1.955,2.308,4.055,4.535,5.7,7.054
		c2.504,3.832,4.511,7.95,5.486,12.491c0.403,1.875-0.596,3.801-2.269,4.259c-1.841,0.504-3.541-0.5-4.23-2.439
		c-0.841-2.366-1.48-4.849-2.655-7.041c-1.423-2.656-3.31-5.063-5.012-7.567C40.845,44.69,40.564,44.514,40.366,44.332z"/>
	<path fill="#0F6991" d="M39.842,9.764c-0.115-3.52,2.922-6.188,6.183-6.039c3.735,0.171,5.818,2.251,5.981,5.998
		c0.133,3.062-2.316,6.201-5.993,6.12C42.573,15.767,39.837,13.132,39.842,9.764z"/>
	<path fill="#0F6991" d="M38.367,18.005c1.596,0.139,2.625,1.765,1.941,3.154c-0.209,0.424-0.517,0.825-0.862,1.15
		c-1.149,1.084-1.423,2.422-1.169,3.897c0.406,2.359,1.44,4.466,2.735,6.451c0.447,0.685,0.706,1.362,0.377,2.178
		c-0.6,1.49-2.641,1.995-3.543,0.72c-2.369-3.353-4.332-6.918-3.962-11.237c0.189-2.203,1.154-4.093,2.891-5.505
		C37.226,18.445,37.832,18.269,38.367,18.005z"/>
	<path fill="#0F6991" d="M33.203,26.463c0.34,1.221,0.588,2.39,0.996,3.501c0.408,1.113,0.975,2.167,1.489,3.284
		c-0.283,0.126-0.544,0.241-0.863,0.383c0.298,2.306-0.065,4.554-1.125,6.641c-0.652,1.282-1.418,2.519-2.251,3.692
		c-0.649,0.915-2.367,0.999-3.258,0.296c-0.778-0.614-0.88-2.15-0.254-3.011c0.559-0.769,1.116-1.551,1.565-2.386
		c1.106-2.056,1.364-4.117,0.39-6.39C28.635,29.543,30.015,27.201,33.203,26.463z"/>
	<path fill="#0F6991" d="M51.889,33.564c-2.735,0.024-4.813-2.01-4.812-4.707c0.001-2.575,2.141-4.783,4.666-4.815
		c2.541-0.032,4.82,2.219,4.836,4.776C56.594,31.375,54.454,33.542,51.889,33.564z"/>
	<path fill="#0F6991" d="M38.886,24.535c-0.022-1.014,0.65-1.615,1.293-2.256c1.138-1.134,1.173-2.655,0.123-3.798
		c-0.987-1.075-2.514-1.217-3.641-0.274c-2.019,1.689-3.21,3.83-3.372,6.489c-0.088,1.449-0.185,1.56-1.893,1.793
		c0.117-0.653,0.176-1.286,0.347-1.886c0.546-1.91,0.947-3.89,1.747-5.691c1.321-2.976,4.297-4.241,7.073-3.193
		c0.552,0.209,1.086,0.703,1.422,1.205c0.926,1.385,1.022,2.956,0.736,4.563c-0.04,0.222-0.107,0.438-0.152,0.659
		C42,24.915,41.852,25.012,38.886,24.535z"/>
	<path fill="#0F6991" d="M28.226,22.948c0,0.465,0,0.845,0,1.306c-7.676,0-15.327,0-23.03,0c0-0.433,0-0.839,0-1.306
		C12.861,22.948,20.489,22.948,28.226,22.948z"/>
	<path fill="#0F6991" d="M41.448,29.176c0.357-0.345,0.699-0.857,1.176-1.092c0.604-0.297,1.137,0.082,1.427,0.648
		c0.95,1.858,1.863,3.735,2.806,5.596c0.449,0.886,0.88,1.787,1.416,2.619c0.487,0.757,0.33,1.349-0.277,1.866
		c-0.602,0.514-1.353,0.42-1.826-0.33c-0.94-1.49-1.828-3.018-2.651-4.575c-0.645-1.22-1.162-2.508-1.728-3.768
		C41.69,29.911,41.622,29.667,41.448,29.176z"/>
	<path fill="#0F6991" d="M45.562,30.657c-0.349-0.759-0.626-1.406-0.94-2.034c-0.524-1.045-1.552-1.432-2.484-0.962
		c-1.018,0.513-1.342,1.53-0.852,2.611c0.288,0.635,0.55,1.281,0.913,2.133c-0.427-0.116-0.753-0.103-0.854-0.248
		c-1.439-2.055-2.371-4.308-2.633-6.873c2.234-0.293,4.253-0.098,6.029,1.278C45.89,27.452,46.374,29.463,45.562,30.657z"/>
	<path fill="#0F6991" d="M15.864,26.632c0,0.48,0,0.916,0,1.408c-2.361,0-4.67,0-7.049,0c0-0.459,0-0.894,0-1.408
		C11.156,26.632,13.485,26.632,15.864,26.632z"/>
	<path fill="#0F6991" d="M16.755,20.451c0-0.41,0-0.785,0-1.223c2.374,0,4.704,0,7.082,0c0,0.391,0,0.77,0,1.223
		C21.52,20.451,19.188,20.451,16.755,20.451z"/>
</g>
</svg>
</svg>
