<svg xmlns="http://www.w3.org/2000/svg" xmlns:xlink="http://www.w3.org/1999/xlink">
<svg id="murder" x="0px" y="0px" width="64px" height="64px" viewBox="0 0 64 64">
<g>
	<path fill="#0F6991" d="M9.915,22.391c-2.403,2.74-2.508,5.974-2.503,9.228c0.002,0.987,0.269,2.026,0.036,2.945
		c-0.165,0.65-0.928,1.53-1.497,1.588c-0.584,0.059-1.601-0.621-1.835-1.212c-1.695-4.279,0.597-13.841,4.207-16.754
		c1.297-1.047,3.196-1.603,4.897-1.846c4.65-0.666,8.859,0.226,12.704,3.361c2.292,1.869,5.315,2.843,8.1,4.267
		c0.475-1.124,0.842-1.995,1.301-3.082c3.339,1.305,6.566,2.566,10.014,3.913c-0.336,0.902-0.635,1.705-1,2.683
		c-2.219-0.849-4.313-1.651-6.059-2.32c-0.258,0.955-0.266,2.442-0.811,2.677c-0.965,0.415-2.414,0.416-3.386-0.021
		c-3.992-1.796-7.88-3.822-11.781-5.751c0,4.612-0.259,9.284,0.065,13.915c0.413,5.905,1.298,11.777,1.977,17.663
		c0.035,0.302,0.053,0.606,0.068,0.91c0.117,2.264-0.749,3.566-2.495,3.592c-2.007,0.03-2.765-1.218-2.958-3.04
		c-0.457-4.308-0.956-8.612-1.437-12.917c-0.203-1.813-0.329-3.639-0.641-5.432c-0.119-0.683-0.662-1.291-1.012-1.934
		c-0.31,0.615-0.82,1.205-0.897,1.848c-0.703,5.886-1.331,11.781-1.981,17.673c-0.058,0.528-0.071,1.07-0.201,1.58
		c-0.389,1.527-1.376,2.391-2.978,2.207c-1.603-0.184-2.473-1.229-2.332-2.824c0.341-3.858,0.793-7.706,1.198-11.559
		c0.413-3.93,0.951-7.853,1.196-11.793C10.073,28.776,9.915,25.579,9.915,22.391z"/>
	<path fill="#0F6991" d="M43.116,47.135c2.794,2.156,5.006,3.881,7.238,5.58c1.224,0.931,2.167,1.963,1.541,3.649
		c-0.575,1.547-1.824,1.841-3.31,1.819c-2.965-0.044-5.932-0.063-8.896,0.004c-1.921,0.043-3.348-0.509-3.584-2.608
		c-0.197-1.744,1.113-2.77,3.51-2.917c0.284-0.017,0.566-0.066,1.076-0.127c-1.467-1.345-3.146-2.339-3.99-3.811
		c-0.84-1.464-0.841-3.409-1.243-5.298c0.802-0.109,1.411-0.192,2.021-0.274c0.005-0.103,0.011-0.205,0.016-0.308
		c-0.538-0.144-1.076-0.288-1.655-0.443c-0.042-0.208-0.138-0.428-0.121-0.638c0.448-5.36,3.899-8.131,9.272-7.545
		c1.052,0.115,2.017,0.281,3.233-0.209c1.982-0.799,4.228,1.845,3.436,3.986c-0.503,1.357-1.532,2.603-2.568,3.661
		C47.291,43.496,45.303,45.151,43.116,47.135z"/>
	<path fill="#0F6991" d="M51.752,32.262c-0.022-2.766,2.071-4.952,4.808-5.022c2.761-0.071,5.153,2.274,5.113,5.009
		c-0.039,2.673-2.307,4.901-4.988,4.899C53.936,37.146,51.774,35.005,51.752,32.262z"/>
	<path fill="#0F6991" d="M18.957,4.659c2.785-0.013,4.957,2.071,5.003,4.802c0.048,2.808-2.228,5.086-5.035,5.042
		c-2.693-0.042-4.947-2.312-4.928-4.962C14.016,6.846,16.225,4.671,18.957,4.659z"/>
</g>
</svg>
</svg>
