<svg xmlns="http://www.w3.org/2000/svg" xmlns:xlink="http://www.w3.org/1999/xlink">
<svg id="physical-injury" x="0px" y="0px" width="64px" height="64px" viewBox="0 0 64 64">
<g>
	<path fill="#FFFFFF" d="M40.521,26.237c1.582,2.996,2.93,5.619,4.358,8.208c0.388,0.704,0.876,1.476,1.57,1.917
		c1.009,0.641,2.206,0.628,3.289-0.114c1.085-0.743,0.739-1.574,0.287-2.435c-1.477-2.817-2.951-5.635-4.43-8.451
		c-1.576-3.002-3.219-5.98-4.71-9.014c-0.811-1.651-2.784-3.127-4.796-3.179c-2.183-0.056-4.372-0.117-6.552-0.035
		c-1.645,0.062-3.162,0.509-4.304,1.698c-1.418,1.476-2.939,2.876-4.399,4.322c-1.724,1.708-3.532,3.364-5.088,5.183
		c-0.53,0.62-0.708,1.737-0.469,2.489c0.156,0.492,1.306,0.916,2.086,1.057c2.467,0.445,4.968,0.743,7.357,1.084
		c0.298,3.65,0.834,7.194,0.825,10.736c-0.019,6.824-0.357,13.646-0.525,20.47c-0.015,0.617,0.099,1.307,0.417,1.845
		c0.524,0.888,2.622,1.337,4.023,0.891c1.164-0.37,1.527-1.247,1.548-2.278c0.127-6.176,0.266-12.353,0.41-18.529
		c0.019-0.798,0.095-1.595,0.144-2.381c0.926,0,1.643,0,2.494,0c0,0.517-0.008,0.943,0.001,1.369
		c0.147,6.478,0.283,12.957,0.454,19.434c0.049,1.862,0.884,2.539,2.894,2.496c2.27-0.049,3.16-0.751,3.101-2.63
		c-0.334-10.596-0.748-21.192,0.007-31.788C40.562,27.936,40.521,27.264,40.521,26.237z M32.756,0.937
		c-3.551-0.277-6.31,2.613-6.325,5.279c-0.017,2.824,3.003,5.415,6.31,5.41c3.301-0.006,6.316-2.593,6.342-5.397
		C39.106,3.74,36.321,0.631,32.756,0.937z"/>
	<path fill="#0F6991" d="M40.521,26.237c0,1.027,0.041,1.699-0.006,2.366c-0.755,10.596-0.34,21.192-0.007,31.788
		c0.059,1.879-0.831,2.581-3.101,2.63c-2.01,0.043-2.845-0.634-2.894-2.496c-0.171-6.478-0.307-12.956-0.454-19.434
		c-0.01-0.426-0.001-0.852-0.001-1.369c-0.851,0-1.568,0-2.494,0c-0.049,0.786-0.126,1.583-0.144,2.381
		c-0.145,6.176-0.284,12.352-0.41,18.529c-0.021,1.031-0.384,1.908-1.548,2.278c-1.401,0.446-3.499-0.004-4.023-0.891
		c-0.318-0.538-0.432-1.228-0.417-1.845c0.168-6.824,0.506-13.646,0.525-20.47c0.01-3.542-0.526-7.085-0.825-10.736
		c-2.389-0.341-4.891-0.639-7.357-1.084c-0.78-0.141-1.93-0.565-2.086-1.057c-0.239-0.751-0.061-1.869,0.469-2.489
		c1.555-1.819,3.363-3.475,5.088-5.183c1.46-1.446,2.981-2.847,4.399-4.322c1.142-1.189,2.659-1.636,4.304-1.698
		c2.179-0.083,4.369-0.022,6.552,0.035c2.012,0.052,3.985,1.528,4.796,3.179c1.491,3.034,3.133,6.012,4.71,9.014
		c1.478,2.816,2.952,5.634,4.43,8.451c0.452,0.861,0.798,1.692-0.287,2.435c-1.083,0.742-2.28,0.755-3.289,0.114
		c-0.694-0.441-1.182-1.213-1.57-1.917C43.451,31.856,42.103,29.233,40.521,26.237z M27.095,15.921
		c-0.121-0.008-0.243-0.015-0.364-0.023c-1.445,4.074-2.891,8.149-4.375,12.333c2.93,0.345,5.693,0.671,8.571,1.009
		C29.625,24.718,28.36,20.319,27.095,15.921z"/>
	<path fill="#0F6991" d="M32.756,0.937c3.566-0.306,6.35,2.803,6.327,5.292c-0.026,2.804-3.041,5.391-6.342,5.397
		c-3.307,0.006-6.327-2.585-6.31-5.41C26.446,3.551,29.205,0.66,32.756,0.937z"/>
	<path fill="#FFFFFF" d="M27.095,15.921c1.265,4.399,2.531,8.798,3.832,13.319c-2.877-0.339-5.641-0.664-8.571-1.009
		c1.484-4.184,2.93-8.259,4.375-12.333C26.852,15.905,26.973,15.913,27.095,15.921z"/>
</g>
</svg>
</svg>
