<svg xmlns="http://www.w3.org/2000/svg" xmlns:xlink="http://www.w3.org/1999/xlink">
<svg id="pickpocketing" x="0px" y="0px" width="64px" height="64px" viewBox="0 0 64 64">
<g>
	<path fill="#FFFFFF" d="M23.218,30.039c0.454-1.246,0.569-2.314,0.128-3.393c-0.128-0.313-0.263-0.71-0.519-0.869
		c-1.129-0.699-2.345-0.932-3.677-0.6c-2.045,0.509-3.156,2.134-4.218,3.673c-1.776,2.574-2.969,5.44-3.55,8.548
		c-0.251,1.34-0.239,2.596,0.514,3.773c0.371,0.58,0.963,1.104,1.102,1.731c0.438,1.978,0.865,3.981,1.009,5.996
		c0.243,3.405-0.512,6.689-1.66,9.89c-0.162,0.453-0.244,0.992-0.17,1.461c0.207,1.299,1.181,2.049,2.552,2.091
		c1.43,0.044,2.385-0.66,2.767-2.053c0.344-1.258,0.704-2.513,1.008-3.781c1.113-4.631,1.125-9.272-0.109-13.871
		c-0.287-1.069-0.28-2.018,0.109-2.991c0.734-1.834,1.505-3.653,2.246-5.445c-0.232-0.436-0.464-0.876-0.699-1.315
		c-0.249-0.465-0.531-0.915-0.744-1.395c-0.313-0.707-0.647-1.418-0.849-2.16c-0.342-1.255,0.315-2.344,1.525-2.686
		c1.033-0.292,2.108,0.346,2.526,1.494C22.718,28.715,22.938,29.289,23.218,30.039z M30.621,41.289
		c0.682,0.184,1.252,0.387,1.839,0.48c0.521,0.082,0.622,0.332,0.62,0.811c-0.017,3.519-0.009,7.039-0.008,10.558
		c0,2.162-0.019,4.324,0.009,6.486c0.018,1.395,0.931,2.375,2.177,2.53c1.812,0.226,2.543-0.487,3.011-1.997
		c0.1-0.324,0.055-0.697,0.055-1.047c-0.001-2.236-0.014-4.473-0.013-6.709c0.002-4.198,0.016-8.395,0.004-12.593
		c-0.001-0.245-0.138-0.517-0.281-0.73c-0.639-0.956-1.364-1.859-1.945-2.848c-1.692-2.878-2.023-6.062-1.92-9.314
		c0.015-0.464,0.204-1.005,0.494-1.362c0.56-0.688,1.551-0.868,2.269-0.566c0.878,0.369,1.343,1.149,1.328,2.158
		c-0.024,1.545,0.072,3.075,0.616,4.699c0.294-1.593,0.572-3.02,0.812-4.454c0.065-0.391,0.069-0.81,0.008-1.202
		c-0.487-3.146-2.768-3.933-5.076-2.692c-1.301,0.699-2.275,1.867-2.682,3.327c-0.714,2.561-1.414,5.133-1.351,7.836
		c0.032,1.36-0.008,1.405,1.347,1.718c1.381,0.319,2.437,0.862,2.239,2.539c0.776,0.199,1.471,0.377,2.204,0.564
		c-0.217,0.901-0.42,1.742-0.63,2.612c-1.258-0.307-2.435-0.564-3.591-0.891c-0.398-0.112-0.746-0.4-1.227-0.669
		C30.882,40.644,30.775,40.911,30.621,41.289z M25.753,25.658c2.667,0.201,4.864-2.624,4.815-4.784
		c-0.058-2.55-2.149-4.715-4.706-4.734c-2.602-0.02-4.796,2.121-4.863,4.657C20.939,23.064,23.201,25.818,25.753,25.658z
		 M38.315,22.085c2.592,0.007,4.63-2.105,4.715-4.745c0.102-3.156-2.705-4.857-4.739-4.794c-2.489,0.077-4.672,1.896-4.652,4.817
		C33.659,20.228,35.874,22.02,38.315,22.085z M32.055,40.141c0.9,0.009,1.629-0.604,1.717-1.495c0.082-0.831-0.477-1.62-1.304-1.761
		c-1.653-0.282-3.185-0.869-4.642-1.689c-2.339-1.316-4.218-3.053-5.231-5.602c-0.213-0.536-0.375-1.095-0.615-1.619
		c-0.348-0.76-1.195-1.136-1.945-0.915c-0.775,0.229-1.395,1.022-1.26,1.754c0.349,1.886,1.201,3.593,2.352,5.075
		c1.337,1.721,2.987,3.148,4.922,4.236C27.916,39.174,29.889,39.835,32.055,40.141z M37.856,28.059c0-0.352,0.059-0.717-0.015-1.053
		c-0.094-0.423-0.208-0.894-0.472-1.214c-0.485-0.589-1.176-0.609-1.865-0.352c-0.711,0.265-1.065,0.765-1.08,1.546
		c-0.069,3.624,0.699,6.988,2.659,10.112c0.987,1.572,2.284,2.708,3.774,3.676c0.946,0.614,1.871,0.247,2.349-0.773
		c0.366-0.78,0.024-1.645-0.788-2.29c-0.799-0.634-1.721-1.227-2.259-2.053C38.673,33.371,37.822,30.834,37.856,28.059z
		 M43.98,1.918c-1.355-0.079-2.346,0.628-3.149,1.541c-1.218,1.386-0.515,3.347,1.416,4.167c0.57,0.242,1.245,0.077,1.436-0.396
		c0.252-0.623-0.367-0.588-0.655-0.775c-0.802-0.52-1.095-1.148-0.858-2.047c0.165-0.626,0.433-1.189,1.196-1.273
		c0.958-0.106,1.689,0.281,2.093,1.122c0.783,1.629,0.787,3.173-0.431,4.629c-0.517,0.618-0.48,1.448-0.006,1.929
		c0.39,0.395,0.838,0.329,1.231,0.06c0.176-0.12,0.383-0.526,0.318-0.616c-0.509-0.705-0.161-1.188,0.294-1.729
		c1.337-1.587,1.124-4.01-0.412-5.488C45.744,2.362,45.031,1.753,43.98,1.918z M48.771,13.828c-0.015-0.827-0.699-1.45-1.499-1.449
		c-0.691,0.001-1.165,0.418-1.143,1.006c0.026,0.694,0.715,1.219,1.628,1.191C48.284,14.559,48.767,14.424,48.771,13.828z"/>
	<path fill="#0F6991" d="M23.218,30.039c-0.281-0.75-0.5-1.324-0.711-1.901c-0.417-1.148-1.493-1.787-2.526-1.494
		c-1.209,0.342-1.867,1.431-1.525,2.686c0.202,0.742,0.536,1.453,0.849,2.16c0.213,0.481,0.495,0.93,0.744,1.395
		c0.235,0.438,0.467,0.878,0.699,1.315c-0.742,1.792-1.512,3.611-2.246,5.445c-0.389,0.973-0.396,1.922-0.109,2.991
		c1.234,4.599,1.222,9.241,0.109,13.871c-0.305,1.268-0.664,2.523-1.008,3.781c-0.382,1.394-1.337,2.097-2.767,2.053
		c-1.372-0.042-2.345-0.792-2.552-2.091c-0.075-0.468,0.007-1.008,0.17-1.461c1.149-3.201,1.903-6.485,1.66-9.89
		c-0.144-2.014-0.571-4.018-1.009-5.996c-0.139-0.627-0.731-1.151-1.102-1.731c-0.752-1.177-0.764-2.433-0.514-3.773
		c0.581-3.108,1.775-5.974,3.55-8.548c1.062-1.539,2.173-3.164,4.218-3.673c1.333-0.332,2.549-0.099,3.677,0.6
		c0.256,0.159,0.391,0.556,0.519,0.869C23.788,27.725,23.672,28.793,23.218,30.039z"/>
	<path fill="#0F6991" d="M30.621,41.289c0.153-0.378,0.261-0.644,0.306-0.757c0.481,0.269,0.829,0.556,1.227,0.669
		c1.157,0.327,2.333,0.585,3.591,0.891c0.21-0.87,0.413-1.711,0.63-2.612c-0.733-0.188-1.428-0.366-2.204-0.564
		c0.198-1.677-0.858-2.22-2.239-2.539c-1.354-0.313-1.315-0.358-1.347-1.718c-0.063-2.703,0.637-5.275,1.351-7.836
		c0.407-1.46,1.381-2.628,2.682-3.327c2.308-1.241,4.588-0.454,5.076,2.692c0.061,0.392,0.057,0.811-0.008,1.202
		c-0.24,1.434-0.518,2.861-0.812,4.454c-0.545-1.624-0.64-3.155-0.616-4.699c0.016-1.009-0.45-1.789-1.328-2.158
		c-0.718-0.302-1.709-0.122-2.269,0.566c-0.291,0.357-0.48,0.897-0.494,1.362c-0.103,3.252,0.229,6.437,1.92,9.314
		c0.581,0.989,1.306,1.892,1.945,2.848c0.143,0.213,0.28,0.485,0.281,0.73c0.011,4.198-0.002,8.395-0.004,12.593
		c-0.001,2.236,0.012,4.473,0.013,6.709c0,0.35,0.046,0.723-0.055,1.047c-0.467,1.51-1.198,2.223-3.011,1.997
		c-1.246-0.155-2.159-1.135-2.177-2.53c-0.028-2.162-0.009-4.324-0.009-6.486c-0.001-3.519-0.009-7.039,0.008-10.558
		c0.002-0.479-0.099-0.729-0.62-0.811C31.873,41.676,31.303,41.472,30.621,41.289z"/>
	<path fill="#0F6991" d="M25.753,25.658c-2.553,0.161-4.814-2.594-4.754-4.861c0.067-2.536,2.261-4.677,4.863-4.657
		c2.556,0.02,4.648,2.184,4.706,4.734C30.617,23.033,28.42,25.858,25.753,25.658z"/>
	<path fill="#0F6991" d="M38.315,22.085c-2.442-0.064-4.656-1.856-4.676-4.722c-0.02-2.921,2.163-4.74,4.652-4.817
		c2.034-0.063,4.84,1.638,4.739,4.794C42.945,19.98,40.907,22.092,38.315,22.085z"/>
	<path fill="#0F6991" d="M32.055,40.141c-2.166-0.305-4.139-0.967-6.006-2.016c-1.935-1.088-3.585-2.515-4.922-4.236
		c-1.151-1.481-2.003-3.188-2.352-5.075c-0.135-0.732,0.485-1.525,1.26-1.754c0.749-0.221,1.597,0.156,1.945,0.915
		c0.24,0.524,0.402,1.082,0.615,1.619c1.013,2.549,2.892,4.286,5.231,5.602c1.457,0.82,2.99,1.407,4.642,1.689
		c0.827,0.141,1.386,0.929,1.304,1.761C33.684,39.537,32.955,40.15,32.055,40.141z"/>
	<path fill="#0F6991" d="M37.856,28.059c-0.034,2.774,0.817,5.312,2.304,7.599c0.537,0.826,1.46,1.419,2.259,2.053
		c0.812,0.645,1.154,1.51,0.788,2.29c-0.478,1.02-1.404,1.386-2.349,0.773c-1.491-0.967-2.787-2.103-3.774-3.676
		c-1.961-3.124-2.728-6.488-2.659-10.112c0.015-0.782,0.369-1.282,1.08-1.546c0.69-0.257,1.38-0.237,1.865,0.352
		c0.264,0.32,0.378,0.792,0.472,1.214C37.916,27.342,37.856,27.707,37.856,28.059z"/>
	<path fill="#0F6991" d="M43.98,1.918c1.051-0.165,1.765,0.444,2.473,1.125c1.537,1.478,1.749,3.901,0.412,5.488
		c-0.455,0.541-0.803,1.024-0.294,1.729c0.065,0.09-0.142,0.496-0.318,0.616c-0.393,0.269-0.841,0.335-1.231-0.06
		c-0.474-0.481-0.511-1.311,0.006-1.929c1.218-1.457,1.213-3.001,0.431-4.629c-0.404-0.841-1.135-1.228-2.093-1.122
		c-0.764,0.084-1.031,0.647-1.196,1.273c-0.237,0.899,0.057,1.527,0.858,2.047c0.288,0.187,0.907,0.152,0.655,0.775
		c-0.191,0.473-0.867,0.638-1.436,0.396c-1.931-0.821-2.633-2.782-1.416-4.167C41.634,2.546,42.624,1.839,43.98,1.918z"/>
	<path fill="#0F6991" d="M48.771,13.828c-0.004,0.596-0.488,0.732-1.013,0.748c-0.913,0.028-1.602-0.497-1.628-1.191
		c-0.022-0.588,0.451-1.005,1.143-1.006C48.072,12.378,48.756,13.001,48.771,13.828z"/>
</g>
</svg>
</svg>
