<svg xmlns="http://www.w3.org/2000/svg" xmlns:xlink="http://www.w3.org/1999/xlink">
<svg id="piracy" x="0px" y="0px" width="64px" height="64px" viewBox="0 0 64 64">
<g>
	<path fill="#FFFFFF" d="M28.736,57.026c0.074,0.007,0.114,0.047,0.119,0.121l-0.003,0.002c0.157,0.194,0.31,0.39,0.47,0.581
		c0.409,0.487,1.394,0.656,1.616,0.249c0.548-1.006,0.366-2.008-0.159-2.959c-0.52-0.942-1.411-1.277-2.423-1.378
		c-0.404-0.04-0.808-0.092-1.111-0.126c-0.429,0.501-0.868,1.014-1.37,1.6c0.805,0.585,1.647,1.195,2.488,1.806
		C28.487,56.957,28.611,56.991,28.736,57.026z M30.715,50.984c-0.195-1.304,0.547-2.354,0.955-3.493
		c0.145-0.405,0.535-0.816,0.819-0.288c0.47,0.875,1.043,1.897,0.965,2.805c-0.069,0.807,0.176,1.346,0.499,1.907
		c0.238,0.413,0.457,1.034,1.255,0.732c0.667-0.252,1.304-0.372,1.194-1.321c-0.108-0.93,0.467-1.16,1.35-1.105
		c-0.097,1.31-0.321,2.514-1.292,3.584c-0.141-0.248-0.231-0.407-0.295-0.519c-1.023,0.217-1.354,0.722-1.129,1.741
		c0.144,0.652-0.076,1.382-0.115,2.077c-0.011,0.207,0.039,0.418,0.085,0.844c1.184-0.979,2.225-1.839,3.315-2.74
		c1.57,0.836,2.728,2.095,3.506,3.737c0.629,1.328,1.645,1.879,3.004,1.519c0.391-0.104,0.91-0.606,0.957-0.978
		c0.189-1.495,1.032-2.347,2.374-2.796c0.614-0.206,1.313-0.422,1.232-1.159c-0.072-0.657-0.324-1.421-0.764-1.885
		c-0.824-0.872-1.935-0.722-3.022-0.424c-2.177,0.597-4.301,0.464-6.398-0.436c-0.677-0.291-0.58-0.755-0.587-1.263
		c-0.006-0.493-0.029-0.911,0.601-1.156c2.295-0.892,4.554-1.714,7.102-0.993c1.251,0.354,2.358-0.237,2.857-1.169
		c0.33-0.616,0.28-1.099-0.37-1.482c-0.616-0.364-1.311-0.683-1.769-1.201c-0.555-0.629-1.095-1.398-1.284-2.192
		c-0.301-1.264-0.425-1.496-1.748-1.423c-1.001,0.055-1.709,0.509-2.165,1.416c-0.316,0.63-0.713,1.219-1.074,1.826
		c-0.086-7.294-1.81-10.134-6.791-10.739c-3.019-0.366-5.981-0.133-8.215,2.317c-2.183,2.395-2.204,5.395-2.1,8.433
		c-0.438-0.517-0.785-1.024-1.065-1.565c-0.741-1.431-1.528-1.837-3.16-1.652c-0.595,0.067-0.913,0.301-0.849,0.925
		c0.118,1.164-0.441,2.007-1.308,2.676c-0.539,0.416-1.144,0.747-1.69,1.156c-0.889,0.667-0.863,1.495,0.038,2.15
		c0.854,0.62,1.795,0.67,2.798,0.485c0.7-0.129,1.49-0.413,2.109-0.216c2.397,0.763,4.685,0.526,6.979-0.341
		c0.239-0.09,0.568,0.004,0.841,0.071c0.246,0.061,0.491,0.32,0.705,0.288c1.257-0.188,1.411-0.092,1.553,1.113
		c0.03,0.257,0.109,0.508,0.166,0.761c-1-0.37-2-0.74-2.953-1.092c0.04,0.511,0.046,1.051,0.142,1.574
		c0.042,0.23,0.22,0.501,0.418,0.622c0.321,0.198,0.701,0.312,1.069,0.418c1.149,0.329,2.261,0.968,3.617,0.513
		C32.54,51.973,31.815,51.268,30.715,50.984z M50.883,52.119c7.237-5.926,11.957-17.425,8.479-29.208
		C55.871,11.082,45.198,2.959,32.794,2.666C20.648,2.38,9.43,10.028,5.417,21.824c-3.915,11.51,0.133,23.598,8.086,30.278
		c0.29-0.275,0.585-0.556,0.924-0.878c-0.252-0.204-0.456-0.359-0.648-0.527c-1.993-1.735-1.948-4.321,0.116-5.971
		c0.354-0.283,0.752-0.513,1.141-0.75c0.582-0.354,0.928-0.751,0.941-1.54c0.025-1.594,1.194-2.808,2.797-3.02
		c0.892-0.118,1.801-0.099,2.951-0.153c-0.033-0.586,0.144-1.332-0.136-1.809c-3.461-5.887-1.799-13.218,3.905-16.95
		c4.709-3.08,11.068-2.515,15.174,1.349c4.213,3.965,5.243,10.203,2.394,15.1c-0.534,0.917-0.4,1.597,0.021,2.41
		c0.206-0.036,0.363-0.083,0.522-0.09c2.745-0.115,4.611,0.785,4.742,3.258c0.038,0.706,0.328,1.071,0.857,1.384
		c0.336,0.199,0.669,0.405,0.998,0.615c1.948,1.241,2.394,3.297,1.087,5.215c-0.376,0.552-0.874,1.022-1.336,1.553
		C50.269,51.577,50.58,51.851,50.883,52.119z M28.733,32.071c-0.323-2.651,0.917-4.446,3.16-4.67c2.38-0.238,3.676,1.307,3.881,4.56
		c1.002,0.461,2.023,0.823,2.926,1.377c0.888,0.545,1.657,1.285,2.481,1.942c2.176-4.174,0.881-9.45-3.027-12.385
		c-3.837-2.882-9.414-2.508-12.904,0.864c-3.137,3.031-4.033,8.518-1.845,11.679C24.809,33.763,26.578,32.663,28.733,32.071z
		 M21.093,53.699c-1.102-0.226-2.112-0.445-3.128-0.639c-1.04-0.199-1.94,0.07-2.618,0.907c-0.935,1.155-0.644,2.247,0.771,2.701
		c1.392,0.446,2.154,1.352,2.392,2.777c0.052,0.312,0.233,0.693,0.479,0.866c0.643,0.451,2.055,0.28,2.671-0.226
		c0.466-0.383,0.588-0.762,0.248-1.345c-0.352-0.605-0.694-1.281-0.783-1.96C20.996,55.776,21.093,54.744,21.093,53.699z
		 M23.351,57.373c0.648-0.65,1.39-1.145,1.348-2.301c-0.02-0.538,0.445-1.344,0.922-1.603c1.399-0.762,1.698-2.051,0.402-3.204
		c-0.12,0.62-0.172,1.167-0.344,1.673c-0.106,0.311-0.338,0.684-0.614,0.814c-0.844,0.396-1.737,0.686-2.607,1.017
		c0.067,0.216,0.186,0.392,0.158,0.539C22.398,55.425,22.417,56.476,23.351,57.373z M33.824,58.151
		c0.146-1.07,0.215-1.83,0.362-2.575c0.148-0.753-0.324-1.334-1.083-1.222c-0.503,0.075-1,0.196-1.601,0.317
		c0.123,0.405,0.217,0.716,0.311,1.027c0.054-0.02,0.109-0.04,0.163-0.059c-0.024-0.253-0.048-0.505-0.083-0.873
		c1.073,1.182,0.986,3.056-0.039,3.695C32.599,58.343,33.343,58.226,33.824,58.151z"/>
	<path fill="#0F6991" d="M50.883,52.119c-0.304-0.268-0.615-0.542-0.93-0.821c0.462-0.53,0.96-1,1.336-1.553
		c1.306-1.918,0.861-3.974-1.087-5.215c-0.33-0.21-0.662-0.416-0.998-0.615c-0.529-0.313-0.819-0.678-0.857-1.384
		c-0.131-2.473-1.998-3.373-4.742-3.258c-0.159,0.007-0.316,0.053-0.522,0.09c-0.421-0.813-0.555-1.493-0.021-2.41
		c2.849-4.897,1.82-11.135-2.394-15.1c-4.106-3.864-10.466-4.43-15.174-1.349c-5.704,3.731-7.366,11.063-3.905,16.95
		c0.28,0.477,0.103,1.223,0.136,1.809c-1.149,0.054-2.059,0.035-2.951,0.153c-1.603,0.213-2.772,1.427-2.797,3.02
		c-0.013,0.789-0.358,1.186-0.941,1.54c-0.389,0.236-0.787,0.467-1.141,0.75c-2.064,1.65-2.109,4.236-0.116,5.971
		c0.193,0.168,0.396,0.323,0.648,0.527c-0.339,0.322-0.634,0.602-0.924,0.878C5.55,45.423,1.502,33.335,5.417,21.824
		C9.43,10.028,20.648,2.38,32.794,2.666c12.405,0.292,23.077,8.416,26.569,20.245C62.84,34.694,58.121,46.193,50.883,52.119z
		 M46.618,8.857c-2.124-1.785-7.872-3.986-9.791-3.741c-0.633,3.904-1.27,7.828-1.883,11.605c1.764,0.681,3.358,1.296,5.043,1.947
		C42.148,15.47,44.366,12.189,46.618,8.857z M53.115,14.627c-3.256,2.563-6.381,5.023-9.533,7.505
		c0.304,0.461,0.612,0.81,0.788,1.217c0.314,0.723,0.677,0.748,1.342,0.378c2.213-1.23,4.468-2.384,6.701-3.577
		c1.025-0.548,2.037-1.121,3.179-1.751C54.751,17.117,53.961,15.914,53.115,14.627z"/>
	<path fill="#0F6991" d="M30.784,51.012c-0.057-0.254-0.136-0.505-0.166-0.761c-0.141-1.206-0.296-1.301-1.553-1.113
		c-0.215,0.032-0.459-0.228-0.705-0.288c-0.273-0.067-0.602-0.161-0.841-0.071c-2.294,0.867-4.582,1.105-6.979,0.341
		c-0.619-0.197-1.41,0.087-2.109,0.216c-1.003,0.184-1.945,0.135-2.798-0.485c-0.901-0.655-0.927-1.483-0.038-2.15
		c0.545-0.409,1.15-0.74,1.69-1.156c0.867-0.669,1.426-1.512,1.308-2.676c-0.063-0.623,0.254-0.857,0.849-0.925
		c1.632-0.185,2.419,0.222,3.16,1.652c0.28,0.541,0.627,1.047,1.065,1.565c-0.104-3.039-0.083-6.038,2.1-8.433
		c2.234-2.45,5.196-2.684,8.215-2.317c4.981,0.604,6.705,3.445,6.791,10.739c0.361-0.607,0.758-1.196,1.074-1.826
		c0.456-0.907,1.164-1.361,2.165-1.416c1.324-0.073,1.448,0.16,1.748,1.423c0.189,0.794,0.73,1.563,1.284,2.192
		c0.457,0.518,1.153,0.837,1.769,1.201c0.65,0.384,0.7,0.867,0.37,1.482c-0.499,0.933-1.606,1.523-2.857,1.169
		c-2.548-0.721-4.806,0.101-7.102,0.993c-0.63,0.245-0.607,0.663-0.601,1.156c0.006,0.508-0.091,0.972,0.587,1.263
		c2.097,0.9,4.22,1.034,6.398,0.436c1.086-0.298,2.197-0.447,3.022,0.424c0.439,0.465,0.692,1.228,0.764,1.885
		c0.081,0.737-0.619,0.954-1.232,1.159c-1.342,0.449-2.185,1.301-2.374,2.796c-0.047,0.372-0.565,0.874-0.957,0.978
		c-1.359,0.36-2.375-0.191-3.004-1.519c-0.778-1.642-1.936-2.901-3.506-3.737c-1.09,0.901-2.131,1.761-3.315,2.74
		c-0.045-0.426-0.096-0.636-0.085-0.844c0.039-0.696,0.258-1.425,0.115-2.077c-0.225-1.02,0.106-1.525,1.129-1.741
		c0.064,0.112,0.154,0.271,0.295,0.519c0.971-1.069,1.194-2.274,1.292-3.584c-0.882-0.056-1.458,0.175-1.35,1.105
		c0.111,0.949-0.527,1.069-1.194,1.321c-0.799,0.302-1.018-0.319-1.255-0.732c-0.323-0.561-0.568-1.101-0.499-1.907
		c0.078-0.908-0.495-1.93-0.965-2.805c-0.284-0.528-0.674-0.117-0.819,0.288c-0.407,1.139-1.149,2.19-0.955,3.493
		C30.715,50.984,30.784,51.012,30.784,51.012z M37.886,44.288c0.065-0.069,0.13-0.138,0.194-0.207
		c-0.353-0.331-0.66-0.748-1.071-0.97c-0.382-0.206-0.877-0.204-1.322-0.293c-1.895-0.377-2.111-0.17-2.31,1.743
		c-0.126,1.207,0.751,1.358,1.509,1.684c2.708,1.167,2.414,1.108,2.979-1.764C37.878,44.418,37.88,44.352,37.886,44.288z
		 M30.987,44.86c-0.045-0.353-0.083-0.643-0.12-0.933c-0.149-1.157-0.44-1.379-1.599-1.203c-0.546,0.083-1.129,0.084-1.623,0.294
		c-0.45,0.192-1.159,0.648-1.133,0.93c0.091,0.994,0.45,1.964,0.711,2.941c0.005,0.017,0.066,0.039,0.088,0.029
		c1.188-0.516,2.379-1.025,3.552-1.573C30.969,45.294,30.957,44.99,30.987,44.86z"/>
	<path fill="#0F6991" d="M28.733,32.071c-2.155,0.592-3.924,1.691-5.328,3.367c-2.188-3.162-1.291-8.648,1.845-11.679
		c3.49-3.372,9.068-3.746,12.904-0.864c3.908,2.935,5.203,8.212,3.027,12.385c-0.824-0.656-1.592-1.397-2.481-1.942
		c-0.903-0.554-1.925-0.916-2.926-1.377c-0.205-3.253-1.501-4.798-3.881-4.56C29.651,27.626,28.411,29.42,28.733,32.071z"/>
	<path fill="#0F6991" d="M21.093,53.699c0,1.045-0.097,2.078,0.034,3.081c0.089,0.679,0.431,1.355,0.783,1.96
		c0.339,0.583,0.217,0.962-0.248,1.345c-0.616,0.506-2.028,0.677-2.671,0.226c-0.246-0.173-0.427-0.553-0.479-0.866
		c-0.238-1.425-1-2.33-2.392-2.777c-1.415-0.454-1.707-1.546-0.771-2.701c0.678-0.837,1.577-1.106,2.618-0.907
		C18.981,53.254,19.991,53.472,21.093,53.699z"/>
	<path fill="#0F6991" d="M28.362,56.922c-0.841-0.611-1.683-1.221-2.488-1.806c0.502-0.586,0.941-1.099,1.37-1.6
		c0.304,0.035,0.707,0.086,1.111,0.126c1.013,0.101,1.904,0.436,2.423,1.378c0.525,0.952,0.707,1.953,0.159,2.959
		c-0.222,0.408-1.207,0.239-1.616-0.249c-0.16-0.191-0.314-0.387-0.47-0.58c0.518,0.109,0.802-0.158,0.636-0.61
		c-0.099-0.269-0.556-0.618-0.795-0.579C28.204,56.04,27.965,56.424,28.362,56.922z"/>
	<path fill="#0F6991" d="M23.351,57.373c-0.934-0.897-0.953-1.948-0.736-3.065c0.029-0.147-0.09-0.323-0.158-0.539
		c0.87-0.33,1.763-0.621,2.607-1.017c0.276-0.129,0.508-0.503,0.614-0.814c0.172-0.506,0.224-1.053,0.344-1.673
		c1.296,1.153,0.997,2.442-0.402,3.204c-0.477,0.259-0.941,1.065-0.922,1.603C24.741,56.228,23.999,56.724,23.351,57.373z"/>
	<path fill="#0F6991" d="M30.784,51.012l-0.069-0.029c1.1,0.284,1.825,0.989,2.362,2.064c-1.356,0.455-2.468-0.184-3.617-0.513
		c-0.368-0.105-0.748-0.22-1.069-0.418c-0.197-0.121-0.376-0.392-0.418-0.622c-0.095-0.523-0.101-1.063-0.142-1.574
		C28.784,50.273,29.784,50.643,30.784,51.012z"/>
	<path fill="#0F6991" d="M33.824,58.151c-0.481,0.076-1.225,0.193-1.97,0.31c1.025-0.638,1.113-2.512,0.039-3.695
		c0.035,0.368,0.059,0.621,0.083,0.873c-0.054,0.02-0.109,0.04-0.163,0.059c-0.094-0.311-0.189-0.622-0.311-1.027
		c0.601-0.121,1.097-0.242,1.601-0.317c0.759-0.112,1.231,0.469,1.083,1.222C34.04,56.321,33.971,57.08,33.824,58.151z"/>
	<path fill="#FFFFFF" d="M28.362,56.922c-0.397-0.497-0.158-0.882,0.33-0.961c0.239-0.039,0.696,0.31,0.795,0.579
		c0.167,0.452-0.118,0.719-0.636,0.61c0,0,0.003-0.003,0.002-0.002c-0.053-0.029-0.092-0.07-0.119-0.122
		C28.611,56.991,28.487,56.957,28.362,56.922z"/>
	<path fill="#FFFFFF" d="M46.618,8.857c-2.252,3.332-4.47,6.614-6.631,9.812c-1.685-0.65-3.279-1.266-5.043-1.947
		c0.613-3.777,1.25-7.702,1.883-11.605C38.745,4.871,44.493,7.072,46.618,8.857z"/>
	<path fill="#FFFFFF" d="M53.115,14.627c0.846,1.288,1.636,2.49,2.478,3.77c-1.143,0.63-2.154,1.203-3.179,1.751
		c-2.233,1.194-4.488,2.347-6.701,3.577c-0.666,0.37-1.029,0.346-1.342-0.378c-0.176-0.406-0.483-0.756-0.788-1.217
		C46.734,19.65,49.858,17.19,53.115,14.627z"/>
	<path fill="#FFFFFF" d="M37.886,44.288c-0.007,0.065-0.008,0.13-0.021,0.194c-0.566,2.871-0.271,2.93-2.979,1.764
		c-0.758-0.326-1.634-0.477-1.509-1.684c0.199-1.913,0.415-2.12,2.31-1.743c0.445,0.089,0.939,0.087,1.322,0.293
		c0.412,0.222,0.719,0.638,1.071,0.97C38.016,44.15,37.951,44.219,37.886,44.288z"/>
	<path fill="#FFFFFF" d="M30.987,44.86c-0.03,0.13-0.018,0.434-0.125,0.484c-1.173,0.548-2.364,1.057-3.552,1.573
		c-0.022,0.01-0.083-0.012-0.088-0.029c-0.261-0.978-0.619-1.947-0.711-2.941c-0.026-0.282,0.683-0.739,1.133-0.93
		c0.493-0.21,1.077-0.211,1.623-0.294c1.159-0.176,1.45,0.046,1.599,1.203C30.905,44.217,30.942,44.506,30.987,44.86z"/>
	<path d="M28.736,57.026c0.027,0.052,0.066,0.093,0.119,0.122C28.849,57.073,28.81,57.033,28.736,57.026z"/>
</g>
</svg>
</svg>
