<svg xmlns="http://www.w3.org/2000/svg" xmlns:xlink="http://www.w3.org/1999/xlink">
<svg id="prostitution" x="0px" y="0px" width="64px" height="64px" viewBox="0 0 64 64">
<g>
	<path fill="#FFFFFF" d="M27.016,27.214c1.034-0.159,1.907-0.288,2.779-0.428c4.173-0.672,7.261-2.778,8.717-6.852
		c0.209-0.585-0.224-1.4-0.36-2.109c-0.606,0.365-1.558,0.593-1.763,1.115c-1.916,4.881-6.335,6.219-10.42,5.546
		c-5.508-0.908-9.478,1.044-13.042,4.687c-0.437,0.447-0.649,1.716-0.336,2.181c0.91,1.354,2.073,2.566,3.284,3.673
		c0.373,0.341,1.218,0.164,1.847,0.225c-0.019-0.624,0.187-1.395-0.104-1.842c-0.659-1.011-1.563-1.863-2.462-2.886
		c0.633-0.513,1.13-0.916,1.307-1.06c1.277,0.873,2.332,1.595,3.085,2.11c-0.192,0.353-0.588,0.868-0.764,1.45
		c-0.31,1.028-0.333,2.161-0.748,3.135c-0.974,2.287-2.108,4.505-3.12,6.632c5.057,2.26,9.935,1.935,14.598,0.152
		c-1.482-3.599-2.967-7.203-4.452-10.808c0.184-0.086,0.368-0.172,0.551-0.258c-0.572-0.094-1.144-0.189-1.716-0.283
		C26.952,31.193,27.742,30.195,27.016,27.214z M22.476,57.832c2.594,1.033,3.108,0.837,4.267-1.567
		c1.128-2.339,2.341-4.647,3.291-7.057c0.314-0.796,0.228-2.04-0.195-2.784c-1.614-2.835-2.272-2.912-5.804-1.264
		c0.622,1.029,1.952,2.255,1.731,3.05c-0.627,2.257-1.887,4.339-2.898,6.489c-0.377-2.768-0.328-5.369-0.417-7.966
		c-0.018-0.534-0.432-1.353-0.863-1.516c-1.101-0.416-2.313-0.536-3.255-0.729c0,3.265-0.001,6.331,0,9.398
		c0.001,1.924-0.037,3.848,0.02,5.77c0.039,1.313,0.621,2.264,2.105,2.266c1.495,0.003,2.037-0.891,2.019-2.266
		C22.47,59.11,22.476,58.562,22.476,57.832z M39.743,9.966c0,13.25,0.01,26.386-0.015,39.521c-0.002,1.298,0.526,1.495,1.749,1.111
		c0-5.27,0-10.487,0-15.703c0.001-7.775,0.003-15.549,0.002-23.324C41.478,10.562,41.704,9.33,39.743,9.966z M22.323,14.779
		c-2.439-0.016-4.382,1.816-4.434,4.182c-0.052,2.37,2.104,4.555,4.446,4.505c2.331-0.05,4.238-2.037,4.237-4.415
		C26.571,16.522,24.854,14.796,22.323,14.779z M35.859,61.714c3.273,0,6.245,0,9.676,0c-3.365-2.957-1.725-6.951-3.199-10.056
		c-1.22,0-2.427,0-3.517,0C37.538,54.988,38.91,58.862,35.859,61.714z"/>
	<path fill="#0F6991" d="M40.727,1.745c-0.001,0.206,2.678,3.835,3.94,5.524c-0.701,2.751-2.876,5.38-1.52,8.801
		c-1.713,0-3.254,0-4.976,0c1.084-3.231-0.705-5.904-1.56-8.539c1.224-1.985,2.395-3.885,3.565-5.785
		C40.451,1.745,40.451,1.745,40.727,1.745z M41.557,7.493c-1.48,0.08-2.145,0.187-2.132,0.419c0.109,1.896,0.782,4.438,0.997,6.327
		c0.142-0.016,0.285-0.033,0.427-0.049C41.06,12.197,41.27,10.204,41.557,7.493z M37.536,8.141c0.649,2.114,1.277,4.158,1.905,6.202
		l0.428-0.092c0,0-0.682-4.46-1.044-6.157C38.748,7.735,37.825,8.139,37.536,8.141z M43.677,8.234
		c-0.102-0.105-1.578-0.778-1.578-0.778S41.89,8.47,41.851,8.8c-0.231,1.87-0.304,3.636-0.487,5.425
		c0.139,0.031,0.277,0.061,0.416,0.092C42.413,12.289,43.045,10.261,43.677,8.234z"/>
	<path fill="#0F6991" d="M27.016,27.214c0.726,2.981,0.31,4.04-2.744,4.441c0.673-0.107,0.79,0.479,0.79,0.479
		c1.485,3.605,2.97,7.209,4.452,10.808c-4.664,1.783-9.541,2.109-14.598-0.152c1.012-2.127,2.146-4.345,3.12-6.632
		c0.415-0.974,0.438-2.107,0.748-3.135c0.175-0.582,0.572-1.097,0.764-1.45c-1.621-0.514-0.333-2.851-2.073-2.885
		c-0.178,0.144-1.687,1.322-2.32,1.835c0.899,1.024,1.803,1.875,2.462,2.886c0.291,0.447,0.662,1.326,0.104,1.842
		c-0.559,0.516-1.474,0.116-1.847-0.225c-1.211-1.107-2.374-2.319-3.284-3.673c-0.313-0.465-0.101-1.734,0.336-2.181
		c3.564-3.643,7.535-5.595,13.042-4.687c4.086,0.673,8.505-0.665,10.42-5.546c0.205-0.522,0.959-1.507,1.763-1.115
		s0.57,1.523,0.36,2.109c-1.456,4.074-4.544,6.179-8.717,6.852C28.924,26.927,28.05,27.055,27.016,27.214z"/>
	<path fill="#0F6991" d="M22.476,57.832c0,0.73-0.006,1.278,0.001,1.827c0.018,1.374-0.524,2.268-2.019,2.266
		c-1.484-0.003-2.066-0.953-2.105-2.266c-0.057-1.922-0.019-3.847-0.02-5.77c-0.001-3.067,0-6.134,0-9.398
		c0.942,0.192,2.155,0.313,3.255,0.729c0.43,0.163,0.844,0.982,0.863,1.516c0.088,2.597,0.04,5.198,0.417,7.966
		c1.011-2.151,2.271-4.232,2.898-6.489c0.221-0.795-1.109-2.021-1.731-3.05c3.532-1.648,4.19-1.571,5.804,1.265
		c0.423,0.743,0.509,1.988,0.195,2.784c-0.95,2.41-2.163,4.718-3.291,7.057C25.584,58.669,25.07,58.865,22.476,57.832z"/>
	<path fill="#0F6991" d="M39.627,18.339c0-2.435,1.968-2.27,1.968-0.055c0,6.443-0.001,12.886-0.002,19.33c0,4.323,0,8.647,0,13.014
		c-1.387,0.318-1.986,0.155-1.983-0.921C39.638,38.822,39.627,29.321,39.627,18.339z"/>
	<path fill="#0F6991" d="M22.323,14.779c2.53,0.017,4.247,1.743,4.248,4.271c0.001,2.378-1.906,4.365-4.237,4.415
		c-2.342,0.05-4.498-2.135-4.446-4.505C17.941,16.596,19.885,14.763,22.323,14.779z"/>
	<path fill="#0F6991" d="M35.859,61.714c3.051-2.853,1.679-6.726,2.96-10.056c1.09,0,2.297,0,3.517,0
		c1.474,3.104-0.167,7.099,3.199,10.056C42.104,61.714,39.132,61.714,35.859,61.714z"/>
</g>
</svg>
</svg>
