<svg xmlns="http://www.w3.org/2000/svg" xmlns:xlink="http://www.w3.org/1999/xlink">
<svg id="rape" x="0px" y="0px" width="64px" height="64px" viewBox="0 0 64 64">
<g>
	<path fill="#FFFFFF" d="M21.537,28.014c-0.171-1.046-0.206-2.149-0.611-3.094c-0.097-0.225-1.471-0.051-2.173,0.187
		c-0.401,0.136-0.633,0.772-0.941,1.183c0.469,0.339,0.898,0.775,1.418,0.993c0.745,0.313,1.558,0.466,2.341,0.688
		c-1.954,1.207-3.884,1.584-5.754-0.163c0.385-0.446,0.771-0.892,1.148-1.328c-2.488-2.366-4.583-2.308-5.854,0.632
		c-1.371,3.172-2.007,6.66-3.009,9.996c-0.161,0.536-0.559,1-0.847,1.497c-0.185-0.103-0.373-0.205-0.56-0.308
		c0-5.426-0.004-10.852,0.002-16.279c0.002-1.763-0.988-2.279-2.594-2.281c-1.615-0.001-2.807,0.343-2.807,2.267
		c0.002,9.324,0.007,18.647-0.005,27.971c-0.003,1.912,1.13,2.327,2.758,2.331c1.689,0.003,2.708-0.571,2.654-2.433
		c-0.036-1.256-0.007-2.514-0.007-3.997c1.788,0,3.344,0,4.733,0c0.258-2.559,0.491-4.869,0.739-7.334
		c-1.015,0.084-1.999,0.166-2.999,0.249c3.551-1.725,3.55-1.726,4.982-5.8c0.19-0.541,0.496-1.062,0.57-1.616
		c0.058-0.431-0.16-0.899-0.256-1.351c0.784,0.364,1.567,0.728,2.351,1.092c-1.055-0.478-1.469,0.05-1.753,1.009
		c-0.794,2.681-1.807,5.307-2.421,8.026c-0.399,1.766-0.485,3.68-0.29,5.482c0.227,2.099,1.673,3.093,3.786,2.897
		c1.322-0.123,2.663-0.387,3.918-0.815c8.903-3.04,17.25-7.257,25.242-12.185c0.941-0.58,1.655-1.541,2.431-2.366
		c0.166-0.177,0.053-0.66,0.225-0.78c2.387-1.678,4.801-3.317,7.209-4.965c0.086,0.671,0.034,1.4,0.284,2.003
		c0.694,1.669,0.73,3.066-0.17,4.845c-2.67,5.28-2.236,10.771-0.21,16.182c0.59,1.577,2.153,2.097,3.412,1.248
		c1.198-0.808,1.279-1.902,0.814-3.204c-1.302-3.642-1.765-7.359-0.329-11.059c0.325-0.837,1.256-1.43,1.871-2.167
		c0.665-0.796,1.794-1.6,1.844-2.451c0.274-4.678-1.331-8.827-4.518-12.216c-1.686-1.793-4.476-1.434-5.407,0.475
		c-1.64,3.362-4.11,5.788-7.504,7.357c-0.566,0.262-0.905,1.017-1.348,1.544c0.153,0.14,0.305,0.279,0.458,0.419
		c1.3-0.602,2.6-1.204,3.9-1.806c-1.101,0.89-2.201,1.78-3.301,2.669c0.047,0.023-0.317-0.322-0.635-0.283
		c-5.866,0.719-11.562-0.489-17.261-1.538c-1.795-0.331-3.458-0.656-4.8,0.965c0.306-0.686,0.613-1.373,0.919-2.059
		C22.631,28.237,22.08,28.131,21.537,28.014z M38.882,45.986c0,1.474,0.026,2.797-0.007,4.118c-0.036,1.437,0.678,2.131,2.063,2.174
		c1.424,0.045,3.171,0.167,3.244-1.759c0.168-4.423,0.053-8.856,0.053-13.393c-5.753,2.932-11.3,5.759-16.847,8.585
		c0.019,0.092,0.039,0.183,0.058,0.275C31.184,45.986,34.922,45.986,38.882,45.986z M54.226,15.821
		c-0.033-2.218-1.989-4.133-4.215-4.128c-2.337,0.006-4.264,1.999-4.179,4.321c0.082,2.241,2.056,4.11,4.277,4.053
		C52.319,20.01,54.259,18.009,54.226,15.821z M20,21.32c-0.021-1.703-1.486-3.096-3.234-3.074c-1.769,0.022-3.135,1.415-3.109,3.172
		c0.026,1.753,1.438,3.116,3.206,3.094C18.594,24.49,20.022,23.038,20,21.32z"/>
	<path fill="#0F6991" d="M22.625,30.813c1.343-1.621,2.643-1.705,4.438-1.375c5.699,1.05,11.395,2.257,17.261,1.538
		c0.317-0.039,0.682,0.306,0.635,0.283c1.1-0.889,2.201-1.779,3.301-2.669c2.648-1.205,4.598-3.083,5.918-5.712
		c0.302-0.602,1.396-1.288,1.969-1.171c1.201,0.246,1.447,1.394,0.943,2.453c-0.541,1.135-1.276,2.177-1.926,3.259
		c-2.408,1.648-4.822,3.288-7.209,4.965c-0.171,0.121-0.059,0.604-0.225,0.78c-0.776,0.825-1.49,1.786-2.431,2.366
		c-7.991,4.928-16.338,9.145-25.242,12.185c-1.255,0.428-2.596,0.693-3.918,0.815c-2.113,0.196-3.559-0.798-3.786-2.897
		c-0.195-1.802-0.109-3.717,0.29-5.482c0.615-2.718,1.628-5.345,2.421-8.026c0.284-0.96,0.709-1.04,1.764-0.562
		C18.643,31.326,20.81,31.051,22.625,30.813z"/>
	<path fill="#0F6991" d="M14.467,30.025c0.095,0.452,0.314,0.92,0.256,1.351c-0.075,0.554-0.38,1.075-0.57,1.616
		c-1.432,4.074-1.431,4.074-4.982,5.8c1.001-0.083,1.985-0.165,2.999-0.249c-0.249,2.466-0.481,4.775-0.739,7.334
		c-1.39,0-2.945,0-4.733,0c0,1.482-0.029,2.74,0.007,3.997c0.054,1.862-0.966,2.436-2.654,2.433
		c-1.628-0.003-2.761-0.419-2.758-2.331C1.305,40.652,1.3,31.329,1.298,22.005c0-1.924,1.192-2.268,2.807-2.267
		c1.606,0.001,2.596,0.517,2.594,2.281c-0.006,5.426-0.002,10.852-0.002,16.279c0.187,0.103,0.375,0.205,0.562,0.308
		c0.288-0.497,0.686-0.962,0.847-1.497c1.002-3.336,1.638-6.824,3.009-9.996c1.27-2.939,3.366-2.998,5.854-0.632
		c-0.137,0.631-0.137,1.387-0.522,1.833c-0.994-0.294-3.307-1.572-3.491-1.306c-1.001,1.45,0.36,2.162,1.369,2.898
		C14.372,29.942,14.418,29.985,14.467,30.025z"/>
	<path fill="#0F6991" d="M55.163,27.418c0.65-1.082,1.386-2.124,1.926-3.259c0.504-1.058,0.257-2.206-0.943-2.453
		c-0.573-0.118-1.667,0.569-1.969,1.171c-1.32,2.628-3.27,4.507-5.918,5.712c-1.3,0.602-3.418,1.799-3.9,1.806
		c-0.482,0.006-0.866-0.317-0.72-0.912s1.044-0.79,1.611-1.051c3.394-1.569,5.864-3.995,7.504-7.357
		c0.931-1.909,3.721-2.267,5.407-0.475c3.187,3.389,4.792,7.538,4.518,12.216c-0.05,0.852-1.178,1.655-1.844,2.451
		c-0.615,0.736-1.547,1.329-1.871,2.167c-1.435,3.699-0.972,7.416,0.329,11.059c0.465,1.302,0.385,2.396-0.814,3.204
		c-1.258,0.848-2.821,0.328-3.412-1.248c-2.025-5.411-2.459-10.901,0.21-16.182c0.899-1.779,0.863-3.176,0.17-4.845
		C55.197,28.819,55.249,28.09,55.163,27.418z"/>
	<path fill="#0F6991" d="M38.882,45.986c-3.961,0-7.698,0-11.436,0c-0.019-0.092-0.039-0.183-0.058-0.275
		c5.547-2.827,11.094-5.654,16.847-8.585c0,4.537,0.115,8.97-0.053,13.393c-0.073,1.926-1.82,1.804-3.244,1.759
		c-1.385-0.044-2.099-0.738-2.063-2.174C38.908,48.783,38.882,47.46,38.882,45.986z"/>
	<path fill="#0F6991" d="M54.226,15.821c0.033,2.188-1.907,4.189-4.117,4.246c-2.221,0.058-4.195-1.812-4.277-4.053
		c-0.085-2.323,1.842-4.316,4.179-4.321C52.238,11.688,54.193,13.603,54.226,15.821z"/>
	<path fill="#0F6991" d="M20,21.32c0.021,1.717-1.406,3.17-3.137,3.192c-1.767,0.023-3.18-1.341-3.206-3.094
		c-0.026-1.757,1.34-3.151,3.109-3.172C18.514,18.224,19.979,19.617,20,21.32z"/>
	<path fill="#0F6991" d="M14.467,30.025c-0.048-0.04-0.094-0.083-0.145-0.12c-1.009-0.737-2.37-1.449-1.369-2.898
		c0.183-0.266,1.872,0.508,2.865,0.802c1.87,1.747,3.8,1.37,5.754,0.163l-0.042,0.053c0.551,0.107,1.101,0.213,1.652,0.32
		c-0.306,0.686-0.613,1.373-0.919,2.059c-1.815,0.238-3.63,0.476-5.444,0.714C16.034,30.753,15.25,30.389,14.467,30.025z"/>
	<path fill="#0F6991" d="M21.572,27.971c-0.784-0.222-1.596-0.375-2.341-0.688c-0.52-0.218-0.949-0.654-1.418-0.993
		c0.308-0.411,0.54-1.047,0.941-1.183c0.702-0.238,2.076-0.413,2.173-0.187c0.405,0.945,0.44,2.049,0.607,3.099
		C21.53,28.024,21.572,27.971,21.572,27.971z"/>
</g>
</svg>
</svg>
