<svg xmlns="http://www.w3.org/2000/svg" xmlns:xlink="http://www.w3.org/1999/xlink">
<svg id="smoke-belching" x="0px" y="0px" width="64px" height="64px" viewBox="0 0 64 64">
<path fill="#FFFFFF" d="M62.666,16.98c-2.761,0.357-5.438,0.746-8.122,1.034c-1.534,0.165-2.694,1.032-3.698,2.415
	c-1.619,2.23-3.276,4.42-4.941,6.599c-0.234,0.307-0.584,0.585-0.912,0.658c-1.645,0.367-3.304,0.639-4.952,0.989
	c-1.938,0.411-3.87,0.864-5.802,1.31c-0.372,0.086-0.767,0.209-0.768,0.816c-0.003,1.963-0.167,3.959,0.778,5.734
	c0.248,0.465,0.436,0.982,0.631,1.487c0.094,0.243,0.139,0.514,0.227,0.852c-0.441,0-0.775-0.015-1.108,0.003
	c-0.651,0.037-1.01,0.466-1.063,1.273c-0.021,0.315-0.02,0.635-0.003,0.951c0.046,0.886,0.414,1.323,1.132,1.332
	c0.848,0.011,1.695,0.003,2.543,0.003c0.517,0,1.034,0,1.552,0c0.02,0.103,0.04,0.206,0.06,0.309
	c-0.269,0.136-0.536,0.383-0.807,0.39c-1.478,0.039-2.957,0.022-4.435,0.016c-0.451-0.002-0.865,0.066-0.853,0.785
	c0.012,0.682,0.421,0.72,0.842,0.719c1.616-0.004,3.234-0.031,4.849,0.016c0.52,0.015,0.854-0.17,1.101-0.724
	c0.457-1.028,1.036-1.829,2.125-1.535c0.025,0.007,0.061-0.052,0.092-0.081c0.44-3.55,2.415-6.189,5.054-6.616
	c1.263-0.204,2.5,0.001,3.651,0.809c1.866,1.31,2.852,3.325,3.142,5.855c3.278,0,6.481,0,9.695,0c0-4.998,0-9.941,0-14.977
	c-4.926,0-9.82,0-14.828,0c0.129-0.218,0.175-0.317,0.237-0.397c1.529-2.002,3.04-4.026,4.606-5.983
	c0.334-0.418,0.849-0.766,1.314-0.847c2.064-0.356,4.139-0.614,6.212-0.884c0.814-0.106,1.632-0.152,2.449-0.226
	C62.666,18.39,62.666,17.788,62.666,16.98z"/>
<path fill="#FFFFFF" d="M31.899,43.954"/>
<path fill="#FFFFFF" d="M29.872,44.271"/>
<path fill="#FFFFFF" d="M51.787,42.974c-0.011-3.277-2.135-5.88-4.78-5.86c-2.609,0.02-4.709,2.649-4.703,5.889
	c0.006,3.266,2.148,5.889,4.784,5.857C49.71,48.829,51.798,46.213,51.787,42.974z"/>
<path fill="#0F6991" d="M62.666,16.98c0,0.808,0,1.41,0,2.085c-0.817,0.074-1.636,0.12-2.449,0.226
	c-2.073,0.27-4.148,0.528-6.212,0.884c-0.465,0.08-0.98,0.429-1.314,0.847c-1.566,1.957-3.077,3.981-4.606,5.983
	c-0.062,0.081-0.108,0.179-0.237,0.397c5.008,0,9.902,0,14.828,0c0,5.036,0,9.978,0,14.977c-3.214,0-6.417,0-9.695,0
	c-0.29-2.53-1.276-4.546-3.142-5.855c-1.151-0.808-2.388-1.013-3.651-0.809c-2.638,0.426-4.614,3.066-5.054,6.616
	c-0.031,0.029-0.067,0.087-0.092,0.081c-1.089-0.294-1.668,0.507-2.125,1.535c-0.246,0.554-0.58,0.739-1.101,0.724
	c-1.616-0.047-3.233-0.02-4.849-0.016c-0.421,0.001-0.83-0.037-0.842-0.719c-0.012-0.719,0.402-0.787,0.853-0.785
	c1.478,0.006,2.957,0.022,4.435-0.016c0.271-0.007,0.538-0.254,0.807-0.39c-0.02-0.103-0.04-0.206-0.06-0.309
	c-0.517,0-1.034,0-1.552,0c-0.848,0-1.695,0.008-2.543-0.003c-0.718-0.01-1.086-0.446-1.132-1.332
	c-0.016-0.316-0.017-0.636,0.003-0.951c0.053-0.807,0.412-1.236,1.063-1.273c0.333-0.019,0.667-0.003,1.108-0.003
	c-0.088-0.338-0.133-0.609-0.227-0.852c-0.195-0.505-0.383-1.022-0.631-1.487c-0.945-1.774-0.782-3.77-0.778-5.734
	c0.001-0.607,0.396-0.73,0.768-0.816c1.933-0.446,3.865-0.899,5.802-1.31c1.648-0.35,3.307-0.621,4.952-0.989
	c0.328-0.073,0.677-0.352,0.912-0.658c1.665-2.179,3.321-4.369,4.941-6.599c1.004-1.383,2.164-2.25,3.698-2.415
	C57.228,17.726,59.905,17.337,62.666,16.98z M50.223,28.695c-0.473,0-0.945,0.005-1.418-0.002c-0.398-0.006-0.555,0.231-0.563,0.719
	c-0.008,0.494,0.105,0.827,0.54,0.833c0.945,0.012,1.891,0.014,2.836-0.001c0.434-0.007,0.551-0.352,0.541-0.84
	s-0.184-0.717-0.577-0.711C51.129,28.7,50.676,28.695,50.223,28.695z"/>
<path d="M29.872,44.271"/>
<path d="M31.899,43.954"/>
<path fill="#0F6991" d="M51.787,42.974c0.011,3.239-2.077,5.855-4.698,5.887c-2.636,0.031-4.778-2.591-4.784-5.857
	c-0.006-3.24,2.094-5.87,4.703-5.889C49.652,37.094,51.775,39.697,51.787,42.974z M45.305,42.949
	c-0.014,1.196,0.781,2.206,1.742,2.213c0.917,0.007,1.729-0.985,1.752-2.14c0.023-1.159-0.814-2.215-1.754-2.212
	C46.116,40.813,45.319,41.792,45.305,42.949z"/>
<path fill="#FFFFFF" d="M50.223,28.695c0.453,0,0.906,0.005,1.359-0.002c0.393-0.006,0.567,0.224,0.577,0.711
	c0.01,0.488-0.107,0.833-0.541,0.84c-0.945,0.015-1.891,0.013-2.836,0.001c-0.435-0.006-0.548-0.339-0.54-0.833
	c0.008-0.488,0.165-0.724,0.563-0.719C49.278,28.7,49.75,28.695,50.223,28.695z"/>
<path fill="#FFFFFF" d="M45.305,42.949c0.014-1.158,0.81-2.137,1.741-2.14c0.94-0.003,1.777,1.054,1.754,2.212
	c-0.023,1.155-0.835,2.147-1.752,2.14C46.086,45.155,45.291,44.145,45.305,42.949z"/>
<circle fill="#0F6991" cx="20.161" cy="38.472" r="6.472"/>
<circle fill="#0F6991" cx="12.455" cy="22.685" r="6.705"/>
<circle fill="#0F6991" cx="16.311" cy="15.98" r="9.561"/>
<circle fill="#0F6991" cx="26.066" cy="42.566" r="4.316"/>
<circle fill="#0F6991" cx="13.689" cy="28.001" r="4.316"/>
</svg>
</svg>
