<svg xmlns="http://www.w3.org/2000/svg" xmlns:xlink="http://www.w3.org/1999/xlink">
<svg id="theft" x="0px" y="0px" width="64px" height="64px" viewBox="0 0 64 64">
<g>
	<path fill="#FFFFFF" d="M39.898,27.575c4.369,1.142,8.034-0.389,11.266-3.162c0.535-0.459,0.492-1.592,0.717-2.413
		c-0.757-0.164-1.51-0.414-2.274-0.459c-0.419-0.024-0.858,0.298-1.288,0.464c2.042-3.24,1.668-4.112-1.918-5.242
		c-0.91-0.287-1.63-1.178-2.592-1.909c5.241-1.26,7.508-3.892,6.879-7.704c-0.506-3.068-3.492-5.397-6.614-5.158
		c-3.905,0.299-5.665,3.054-5.672,8.825c-1.926-0.777-3.845-1.633-5.82-2.331C27.376,6.645,22.22,6.91,17.272,9.319
		c-4.875,2.373-7.187,7.582-6.385,13.863c0.458,3.585,3.923,6.759,8.496,7.915c4.655,1.177,8.121-0.678,10.76-4.227
		c0.609,3.369,0.735,6.766,1.867,9.786c2.638,7.036,0.944,12.855-5.53,16.691c-1.99,1.179-3.061,2.644-2.055,4.932
		c0.864,1.967,3.149,2.601,5.356,1.145c2.82-1.861,5.383-4.11,7.928-6.091c-0.243,0.939-0.652,2.256-0.916,3.602
		c-0.403,2.055,0.274,3.656,2.392,4.236c1.946,0.533,3.416-0.305,4.097-2.176c2.441-6.715,3.124-13.52-0.565-19.944
		c-1.535-2.673-1.891-5.256-1.886-8.146C40.832,29.794,40.226,28.684,39.898,27.575z"/>
	<path fill="#0F6991" d="M39.898,27.575c0.329,1.109,0.934,2.219,0.932,3.328c-0.005,2.89,0.351,5.473,1.886,8.146
		c3.689,6.424,3.007,13.228,0.565,19.944c-0.68,1.871-2.15,2.709-4.097,2.176c-2.118-0.581-2.795-2.181-2.392-4.236
		c0.264-1.346,0.673-2.663,0.916-3.602c-2.544,1.981-5.108,4.23-7.928,6.091c-2.207,1.457-4.491,0.822-5.356-1.145
		c-1.006-2.288,0.066-3.753,2.055-4.932c6.473-3.836,8.167-9.655,5.53-16.691c-1.132-3.02-1.258-6.417-1.867-9.786
		c-2.639,3.549-6.105,5.404-10.76,4.227c-4.573-1.156-8.038-4.33-8.496-7.915c-0.802-6.28,1.51-11.489,6.385-13.863
		c4.948-2.409,10.104-2.673,15.31-0.833c1.975,0.698,3.893,1.554,5.82,2.331c0.007-5.771,1.767-8.526,5.672-8.825
		c3.123-0.239,6.109,2.089,6.614,5.158c0.629,3.812-1.639,6.444-6.879,7.704c0.962,0.731,1.682,1.622,2.592,1.909
		c3.586,1.13,3.96,2.002,1.918,5.242c-0.536,0.389-1.033,0.854-1.615,1.153c-4.055,2.088-5.863,1.246-6.935-3.154
		c-0.247-1.013-0.442-2.087-0.943-2.973c-0.306-0.542-1.191-1.118-1.74-1.052c-0.481,0.058-1.203,0.978-1.224,1.539
		C35.717,21.438,36.271,25.142,39.898,27.575z M22.365,24.914c0.736-0.072,1.609,0.07,2.211-0.268
		c1.007-0.566,1.84-1.439,2.747-2.182c-0.682-0.815-1.285-1.719-2.069-2.421c-0.762-0.683-1.709-1.159-2.672-1.789
		c0.41-1.038,0.767-1.939,1.155-2.921c1.186,0.873,2.058,1.515,2.931,2.157c0.161-0.182,0.322-0.364,0.483-0.547
		c-1.01-1.503-2.02-3.005-2.94-4.373c-0.947,0.33-2.025,0.767-3.138,1.081c-2.57,0.725-3.263,2.226-1.466,4.061
		c1.734,1.771,1.03,3.274,0.466,5.06c-1.199-0.472-2.159-0.85-3.119-1.228c-0.072,0.144-0.143,0.289-0.215,0.433
		c1.55,1.581,3.101,3.163,4.768,4.863C21.722,26.357,22.036,25.651,22.365,24.914z"/>
	<path fill="#0F6991" stroke="#FFFFFF" stroke-miterlimit="10" d="M39.898,27.575c-3.627-2.433-4.181-6.137-4.036-10.057
		c0.021-0.561,0.292-1.373,1.224-1.539s1.714,0.308,1.926,1.028c0.288,0.977,0.51,1.984,0.757,2.997
		c1.072,4.4,2.88,5.242,6.935,3.154c0.582-0.3,1.079-0.765,1.615-1.153c0.491-0.327,2.235-2.081,3.326-0.32
		c0.65,1.049,0.055,2.269-0.48,2.728C47.931,27.186,44.267,28.716,39.898,27.575z"/>
</g>
<rect x="15" y="12" fill="#0F6991" width="13" height="15"/>
<text transform="matrix(0.8338 0.552 -0.552 0.8338 16.4042 20.8538)" fill="#FFFFFF" font-family="'Calibri'" font-size="17.2107">₱ </text>
</svg>
</svg>
