<svg xmlns="http://www.w3.org/2000/svg" xmlns:xlink="http://www.w3.org/1999/xlink">
<svg id="traffic-violation" x="0px" y="0px" width="64px" height="64px" viewBox="0 0 64 64">
<g>
	<path fill="#FFFFFF" d="M50.03,25.413c-0.112,2.009-0.223,4.019-0.332,5.976c3.163,0,6.036,0,8.87,0c0-1.398,0-2.809,0-4.494
		c-0.811,0.37-1.357,0.619-1.902,0.868c0.569-0.316,1.121-0.855,1.711-0.899c0.999-0.075,2.02,0.227,3.035,0.251
		c1.24,0.029,1.929-0.725,1.42-1.845c-0.81-1.784-1.739-3.567-2.936-5.1c-0.548-0.702-1.973-1.285-2.794-1.083
		c-1.46,0.358-2.897,0.498-4.369,0.572c-0.024-0.268-0.047-0.536-0.071-0.804c3.455,0.55,4.8-0.411,5.272-3.741
		c0.046-0.322,0.154-0.664,0.331-0.932c1.181-1.802,0.703-2.953-1.174-4.058c-2.137-1.258-3.993-0.989-6.007,0.173
		c-1.569,0.906-1.993,2.321-0.931,3.785c0.189,0.26,0.428,0.6,0.403,0.881c-0.167,1.821,0.814,2.977,2.166,3.951
		c-3.861,0.175-6.168,1.907-7.495,5.732c-0.161,0.463-0.145,1.275,0.141,1.532c0.365,0.328,1.133,0.438,1.65,0.317
		C48.05,26.252,49.029,25.786,50.03,25.413z M42.038,39.74c0-2.479,0.029-4.752-0.03-7.022c-0.009-0.35-0.391-0.713-0.651-1.027
		c-0.473-0.571-1.19-1.028-1.447-1.675c-1.388-3.488-2.698-7.008-3.96-10.543c-0.363-1.017-0.872-1.451-1.989-1.689
		c-8.202-1.749-16.369-1.685-24.565,0.035c-1.015,0.213-1.425,0.639-1.743,1.515c-1.243,3.422-2.54,6.824-3.817,10.233
		c-0.353,0.942-0.508,2.023-1.824,2.217c-0.203,0.03-0.484,0.498-0.489,0.767c-0.038,2.374-0.022,4.749-0.022,7.191
		C15.086,39.74,28.452,39.74,42.038,39.74z M34.228,43.947c0,0.775,0,1.446,0,2.116c-0.001,4.063,0.148,4.182,4.249,4.009
		c1.331-0.056,2.012-0.615,1.995-1.978c-0.017-1.361-0.004-2.723-0.004-4.045c1.766-0.466,1.923-0.899,1.287-3.275
		c-13.36,0-26.731,0-40.182,0c0,1.006,0,1.899,0,2.884c0.484,0.118,0.951,0.233,1.511,0.37c0,0.747,0,1.426,0,2.105
		c0.002,4.01,0.001,3.972,3.963,3.946c1.574-0.01,2.34-0.596,2.265-2.227C9.253,46.563,9.3,45.269,9.3,43.948
		C17.702,43.947,25.881,43.947,34.228,43.947z M56.391,34.024c-0.171,0.018-0.342,0.037-0.514,0.055
		c-0.164-0.583-0.329-1.166-0.483-1.713c-1.869,0-3.661,0-5.618,0c0,4.945-0.005,9.776,0.003,14.606
		c0.003,1.86,0.665,2.765,2.003,2.8c1.331,0.035,2.056-0.894,2.063-2.727c0.014-3.873-0.001-7.747,0.013-11.62
		c0.002-0.491,0.104-0.981,0.16-1.472c0.188,0.013,0.377,0.026,0.565,0.039c0,0.536,0,1.071,0,1.607
		c0,3.816-0.014,7.633,0.006,11.449c0.009,1.782,0.802,2.801,2.123,2.713c1.611-0.106,2.047-1.216,2.047-2.618
		c0.003-4.614,0.006-9.228-0.008-13.842c-0.001-0.312-0.144-0.624-0.253-1.063c-0.316,0.783-0.544,1.346-0.771,1.91
		c-0.139-0.041-0.278-0.081-0.417-0.122c-0.138-0.535-0.276-1.071-0.52-2.016C56.598,32.981,56.495,33.503,56.391,34.024z"/>
	<path fill="#0F6991" d="M42.038,39.74c-13.587,0-26.952,0-40.536,0c0-2.441-0.016-4.816,0.022-7.191
		c0.004-0.269,0.285-0.737,0.489-0.767c1.315-0.193,1.471-1.274,1.824-2.217c1.277-3.409,2.574-6.811,3.817-10.233
		c0.318-0.875,0.727-1.301,1.743-1.515c8.196-1.72,16.363-1.784,24.565-0.035c1.117,0.238,1.626,0.672,1.989,1.689
		c1.263,3.535,2.573,7.055,3.96,10.543c0.257,0.647,0.974,1.104,1.447,1.675c0.261,0.314,0.642,0.678,0.651,1.027
		C42.067,34.989,42.038,37.261,42.038,39.74z M36.668,30.415c-1.194-3.197-2.197-5.978-3.295-8.723
		c-0.168-0.421-0.726-0.868-1.177-0.967c-6.938-1.521-13.89-1.499-20.832-0.015c-0.388,0.083-0.925,0.341-1.049,0.654
		c-1.146,2.885-2.217,5.799-3.456,9.096C16.895,28.316,26.621,28.431,36.668,30.415z M7.01,32.992
		c-1.361-0.044-2.502,1.022-2.566,2.395C4.376,36.846,5.465,38.06,6.878,38.1c1.376,0.039,2.634-1.194,2.631-2.578
		C9.507,34.208,8.348,33.035,7.01,32.992z M36.575,38.1c1.322,0.019,2.509-1.108,2.569-2.439c0.065-1.423-1.086-2.652-2.498-2.667
		c-1.431-0.016-2.595,1.16-2.57,2.596C34.101,36.931,35.245,38.081,36.575,38.1z"/>
	<path fill="#0F6991" d="M34.228,43.947c-8.346,0-16.526,0-24.928,0c0,1.322-0.047,2.615,0.012,3.904
		c0.075,1.631-0.691,2.217-2.265,2.227c-3.961,0.025-3.961,0.063-3.963-3.946c0-0.679,0-1.358,0-2.105
		c-0.56-0.137-1.027-0.251-1.511-0.37c0-0.985,0-1.878,0-2.884c13.452,0,26.822,0,40.182,0c0.636,2.376,0.48,2.808-1.287,3.275
		c0,1.322-0.013,2.684,0.004,4.045c0.017,1.362-0.664,1.922-1.995,1.978c-4.101,0.173-4.25,0.054-4.249-4.009
		C34.228,45.393,34.228,44.723,34.228,43.947z"/>
	<path fill="#0F6991" d="M56.391,34.024c0.103-0.522,0.206-1.043,0.398-2.013c0.244,0.945,0.382,1.48,0.52,2.016
		c0.139,0.041,0.278,0.082,0.417,0.122c0.227-0.563,0.455-1.127,0.771-1.91c0.109,0.439,0.252,0.751,0.253,1.063
		c0.014,4.614,0.011,9.228,0.008,13.842c-0.001,1.402-0.437,2.512-2.047,2.618c-1.321,0.087-2.113-0.932-2.123-2.713
		c-0.02-3.816-0.006-7.633-0.006-11.449c0-0.536,0-1.071,0-1.607c-0.188-0.013-0.377-0.026-0.565-0.039
		c-0.056,0.491-0.158,0.981-0.16,1.472c-0.014,3.873,0.001,7.747-0.013,11.62c-0.007,1.833-0.732,2.762-2.063,2.727
		c-1.338-0.035-2-0.941-2.003-2.8c-0.008-4.831-0.003-9.661-0.003-14.606c1.957,0,3.75,0,5.618,0
		c0.155,0.548,0.319,1.131,0.483,1.713C56.049,34.061,56.22,34.043,56.391,34.024z"/>
	<path fill="#0F6991" d="M52.116,19.441c1.553-0.078,3.069-0.225,4.61-0.603c0.867-0.213,2.37,0.403,2.948,1.143
		c1.264,1.618,2.244,3.499,3.098,5.382c0.537,1.182-0.191,1.978-1.499,1.947c-1.071-0.025-2.148-0.344-3.202-0.265
		c-0.622,0.047-1.205,0.615-1.805,0.948c-0.824,0.02-1.678-0.092-2.467,0.086c-2.578,0.582-2.859,0.435-3.277-2.151
		c-0.239-2.026-0.477-4.053-0.699-5.937c1.004-0.259,1.674-0.432,2.344-0.605L52.116,19.441z"/>
	<path fill="#0F6991" d="M52.749,18.911c-1.348-0.971-2.33-2.127-2.163-3.948c0.026-0.281-0.214-0.621-0.403-0.881
		c-1.062-1.464-0.638-2.879,0.931-3.785c2.014-1.162,3.87-1.431,6.007-0.173c1.877,1.105,2.355,2.256,1.174,4.058
		c-0.176,0.269-0.285,0.611-0.331,0.932c-0.472,3.33-1.817,4.291-5.27,3.743C52.696,18.857,52.749,18.911,52.749,18.911z
		 M50.643,13.347c2.438,0,4.621,0,6.804,0C55.237,12.249,53.05,12.198,50.643,13.347z"/>
	<path fill="#0F6991" d="M51.222,25.805c0.396,2.45,0.662,2.59,3.106,2.038c0.747-0.169,1.278-1.282,2.059-1.301
		c0.546-0.249,1.369,0.722,2.181,0.352c0,1.685,0,3.096,0,4.494c-2.834,0-5.707,0-8.87,0c0.109-1.957,0.22-3.966,0.332-5.976
		l-0.062,0.052C50.386,25.578,50.804,25.692,51.222,25.805z"/>
	<path fill="#0F6991" d="M50.03,25.413c-1.001,0.373-1.98,0.839-3.012,1.081c-0.517,0.122-1.285,0.011-1.65-0.317
		c-0.287-0.257-0.302-1.069-0.141-1.532c1.327-3.825,3.635-5.557,7.494-5.733c-0.002-0.002-0.055-0.055-0.056-0.057
		c0.022,0.266,0.045,0.534,0.069,0.802l0.048-0.052c-0.826,0-1.652,0-2.051,0c-0.507,1.272-0.854,2.142-1.133,2.843
		c0.127,0.066,0.861,0.288,0.851,0.469c-0.048,0.855-0.3,1.699-0.479,2.548L50.03,25.413z"/>
	<path fill="#FFFFFF" d="M36.668,30.415c-10.046-1.984-19.772-2.099-29.81,0.046c1.239-3.296,2.31-6.211,3.456-9.096
		c0.124-0.313,0.661-0.572,1.049-0.654c6.943-1.483,13.894-1.506,20.832,0.015c0.451,0.099,1.009,0.546,1.177,0.967
		C34.47,24.437,35.474,27.218,36.668,30.415z M28.358,21.293c-1.994-0.015-3.59,1.502-3.656,3.476
		c-0.067,2.016,1.575,3.725,3.595,3.742c1.977,0.017,3.569-1.528,3.617-3.511C31.964,22.887,30.45,21.308,28.358,21.293z"/>
	<path fill="#FFFFFF" d="M7.01,32.992c1.338,0.043,2.497,1.216,2.499,2.53c0.003,1.384-1.255,2.616-2.631,2.578
		c-1.413-0.04-2.502-1.253-2.434-2.713C4.508,34.013,5.65,32.948,7.01,32.992z"/>
	<path fill="#FFFFFF" d="M36.575,38.1c-1.33-0.019-2.474-1.169-2.498-2.511c-0.026-1.436,1.138-2.612,2.57-2.596
		c1.412,0.016,2.563,1.244,2.498,2.667C39.084,36.992,37.897,38.119,36.575,38.1z"/>
	<path fill="#FFFFFF" d="M49.968,25.465c0.179-0.848,0.431-1.692,0.479-2.548c0.01-0.18-0.724-0.403-0.851-0.469
		c0.279-0.7,0.626-1.571,1.133-2.843c0.399,0,1.225,0,2.051,0c-0.635,0.164-1.27,0.328-2.221,0.573
		c0.21,1.786,0.436,3.706,0.662,5.626C50.804,25.692,50.386,25.578,49.968,25.465z"/>
	<path fill="#FFFFFF" d="M50.612,13.347c2.407-1.148,4.595-1.098,6.804,0C55.233,13.347,53.05,13.347,50.612,13.347z"/>
	<path fill="#0F6991" d="M28.358,21.293c2.092,0.015,3.606,1.594,3.555,3.707c-0.048,1.982-1.639,3.527-3.617,3.511
		c-2.02-0.017-3.662-1.726-3.595-3.742C24.768,22.796,26.363,21.279,28.358,21.293z"/>
</g>
</svg>
</svg>
