<svg xmlns="http://www.w3.org/2000/svg" xmlns:xlink="http://www.w3.org/1999/xlink">
<svg id="vandalism" x="0px" y="0px" width="64px" height="64px" viewBox="0 0 64 64">
<g>
	<path fill="#525252" d="M29.109,40.341c0.562-3.947,1.082-7.595,1.598-11.218c-1.614-0.314-3.289-0.528-4.896-0.984
		c-1.746-0.495-2.603-2.223-2.129-3.879c0.468-1.632,2.092-2.515,3.877-2.153c1.054,0.214,2.123,0.357,3.314,0.553
		c-0.899-2.288-2.448-3.241-4.605-2.945c-3.21,0.441-5.171,2.418-6.269,5.328c-2.154,5.71-2.769,11.6-1.923,17.642
		c0.542,3.876,2.866,5.89,6.749,5.866c1.414-0.008,2.827-0.001,4.318-0.001c-1.556,1.381-3.17,2.681-4.61,4.15
		c-0.668,0.681-1.226,1.642-1.432,2.566c-0.373,1.669,0.495,3.204,1.934,4.017c1.529,0.863,3.242,0.696,4.687-0.574
		c4.67-4.107,9.319-8.238,13.967-12.37c1.358-1.207,1.785-3.019,1.136-4.607c-0.673-1.645-2.1-2.525-4.026-2.448
		c-0.722,0.029-1.442,0.116-2.162,0.182C35.617,39.743,32.598,40.021,29.109,40.341z M40.438,11.161
		c-0.024-3.952-3.267-7.166-7.21-7.144s-7.135,3.269-7.115,7.236c0.02,3.953,3.27,7.175,7.207,7.148
		C37.258,18.373,40.462,15.114,40.438,11.161z M30.698,28.392c8.842-0.09,14.614-3.832,18.557-10.619
		c0.941-1.62,0.679-3.135-0.634-3.93c-1.38-0.835-2.788-0.321-3.819,1.396c-4.027,6.705-9.647,9.139-17.29,7.488
		c-1.596-0.345-2.935,0.393-3.267,1.799c-0.342,1.448,0.435,2.788,2.032,3.144C28.006,28.056,29.781,28.247,30.698,28.392z
		 M44.87,40.545c1.244-1.925,0.813-3.518-1.109-4.199c-4.107-1.455-7.879-3.359-10.566-6.975c-0.651-0.876-1.575-0.586-1.872,0.471
		c-1.176,4.181-0.986,4.726,2.553,7.281c0.313,0.226,0.642,0.428,0.948,0.662c1.284,0.98,2.641,1.375,4.307,1.049
		C41.222,38.425,43.302,38.507,44.87,40.545z M3.807,59.29c1.85,0,3.554,0,5.313,0c0-3.915,0-7.707,0-11.486
		c-0.479-0.127-0.88-0.233-1.253-0.332c-0.082-0.637-0.154-1.19-0.222-1.713c-0.873,0-1.625,0-2.392,0
		c-0.048,0.616-0.089,1.138-0.134,1.714c-0.46,0.113-0.896,0.221-1.312,0.323C3.807,51.667,3.807,55.421,3.807,59.29z
		 M11.118,59.331c1.798,0,3.503,0,5.3,0c0-3.907,0-7.732,0-11.594c-0.478-0.063-0.886-0.116-1.327-0.174
		c-0.069-0.623-0.131-1.177-0.201-1.81c-0.83,0-1.569,0-2.351,0c-0.065,0.648-0.12,1.204-0.175,1.754
		c-0.475,0.11-0.873,0.203-1.245,0.289C11.118,51.687,11.118,55.469,11.118,59.331z M51.713,22.618c0-3.948,0-7.746,0-11.59
		c-0.467-0.116-0.905-0.225-1.33-0.331c-0.042-0.606-0.077-1.126-0.116-1.693c-0.846,0-1.629,0-2.425,0
		c-0.072,0.657-0.132,1.213-0.19,1.74c-1.51,0.297-1.51,0.297-1.15,2.09c3.805,0.248,4.976,2.463,2.97,5.727
		c-0.837,1.361-1.816,2.635-2.805,4.056C48.397,22.618,49.97,22.618,51.713,22.618z"/>
	<path fill="#0F6991" d="M29.109,40.341c3.488-0.32,6.507-0.598,9.527-0.874c0.72-0.066,1.44-0.153,2.162-0.182
		c1.926-0.077,3.354,0.803,4.026,2.448c0.649,1.588,0.222,3.4-1.136,4.607c-4.648,4.132-9.297,8.263-13.967,12.37
		c-1.444,1.27-3.158,1.437-4.687,0.574c-1.439-0.813-2.307-2.348-1.934-4.017c0.207-0.924,0.765-1.884,1.432-2.566
		c1.44-1.469,3.053-2.769,4.61-4.15c-1.491,0-2.905-0.007-4.318,0.001c-3.883,0.023-6.207-1.991-6.749-5.866
		c-0.846-6.042-0.231-11.932,1.923-17.642c1.098-2.91,3.06-4.887,6.269-5.328c2.157-0.297,3.706,0.657,4.605,2.945
		c-1.191-0.196-2.26-0.339-3.314-0.553c-1.785-0.362-3.409,0.52-3.877,2.153c-0.474,1.655,0.383,3.384,2.129,3.879
		c1.607,0.455,3.282,0.669,4.896,0.984C30.191,32.746,29.672,36.394,29.109,40.341z"/>
	<path fill="#0F6991" d="M40.438,11.161c0.024,3.954-3.18,7.213-7.118,7.24c-3.937,0.027-7.187-3.196-7.207-7.148
		c-0.02-3.967,3.172-7.214,7.115-7.236C37.171,3.995,40.414,7.208,40.438,11.161z"/>
	<path fill="#0F6991" d="M30.698,28.392c-0.917-0.144-2.692-0.336-4.423-0.722c-1.597-0.356-2.374-1.696-2.032-3.144
		c0.332-1.407,1.671-2.144,3.267-1.799c7.643,1.651,13.263-0.783,17.29-7.488c1.031-1.716,2.439-2.231,3.819-1.396
		c1.314,0.795,1.576,2.309,0.634,3.93C45.311,24.56,39.54,28.302,30.698,28.392z"/>
	<path fill="#0F6991" d="M44.87,40.545c-1.569-2.037-3.648-2.12-5.739-1.711c-1.666,0.326-3.023-0.069-4.307-1.049
		c-0.306-0.234-0.636-0.436-0.948-0.662c-3.539-2.555-3.729-3.1-2.553-7.281c0.298-1.058,1.221-1.347,1.872-0.471
		c2.687,3.616,6.459,5.519,10.566,6.975C45.683,37.027,46.114,38.62,44.87,40.545z"/>
	<path fill="#0F6991" d="M3.807,59.29c0-3.869,0-7.622,0-11.493c0.416-0.103,0.853-0.21,1.312-0.323
		c0.045-0.577,0.086-1.098,0.134-1.714c0.767,0,1.519,0,2.392,0c0.068,0.523,0.139,1.076,0.222,1.713
		c0.373,0.099,0.775,0.205,1.253,0.332c0,3.779,0,7.571,0,11.486C7.361,59.29,5.657,59.29,3.807,59.29z"/>
	<path fill="#0F6991" d="M11.118,59.331c0-3.862,0-7.643,0-11.535c0.372-0.086,0.77-0.179,1.245-0.289
		c0.055-0.55,0.111-1.105,0.175-1.754c0.781,0,1.52,0,2.351,0c0.07,0.633,0.132,1.187,0.201,1.81
		c0.441,0.058,0.849,0.112,1.327,0.174c0,3.862,0,7.687,0,11.594C14.621,59.331,12.915,59.331,11.118,59.331z"/>
	<path fill="#0F6991" d="M51.713,22.618c-1.743,0-3.316,0-5.047,0c0.989-1.421,1.969-2.694,2.805-4.056
		c2.006-3.264,0.835-5.479-2.97-5.727c-0.36-1.793-0.36-1.793,1.15-2.09c0.057-0.526,0.118-1.083,0.19-1.74c0.796,0,1.579,0,2.425,0
		c0.039,0.567,0.074,1.086,0.116,1.693c0.425,0.106,0.863,0.215,1.33,0.331C51.713,14.872,51.713,18.669,51.713,22.618z"/>
</g>
<line fill="#555555" stroke="#0F6991" stroke-linecap="round" stroke-miterlimit="10" x1="53.75" y1="8.384" x2="62.068" y2="5.406"/>
<line stroke="#0F6991" stroke-linecap="round" stroke-miterlimit="10" x1="54" y1="10.5" x2="62" y2="10.5"/>
<line fill="#555555" stroke="#0F6991" stroke-linecap="round" stroke-miterlimit="10" x1="53.839" y1="12.449" x2="61.181" y2="17.121"/>
</svg>
</svg>
